<svg width="150" height="180" viewBox="0 0 150 180" fill="none" xmlns="http://www.w3.org/2000/svg">
<g id="figma" filter="url(#filter0_d_15_483)">
<g id="figma-1 1">
<g clip-path="url(#clip0_15_483)">
<path id="path0 fill" d="M57.3753 136C66.9632 136 74.7447 128.533 74.7447 119.333V102.667H57.3753C47.7874 102.667 40.0059 110.133 40.0059 119.333C40.0059 128.533 47.7874 136 57.3753 136Z" fill="#0ACF83"/>
<path id="path1 fill" d="M40.0059 85.9999C40.0059 76.7999 47.7874 69.3333 57.3753 69.3333H74.7447V102.667H57.3753C47.7874 102.667 40.0059 95.1999 40.0059 85.9999Z" fill="#A259FF"/>
<path id="path1 fill 1" d="M40.0039 52.6667C40.0039 43.4667 47.7854 36 57.3733 36H74.7427V69.3333H57.3733C47.7854 69.3333 40.0039 61.8667 40.0039 52.6667Z" fill="#F24E1E"/>
<path id="path2 fill" d="M74.7456 36H92.115C101.703 36 109.484 43.4667 109.484 52.6667C109.484 61.8667 101.703 69.3333 92.115 69.3333H74.7456V36Z" fill="#FF7262"/>
<path id="path3 fill" d="M109.484 85.9999C109.484 95.1999 101.703 102.667 92.115 102.667C82.5271 102.667 74.7456 95.1999 74.7456 85.9999C74.7456 76.7999 82.5271 69.3333 92.115 69.3333C101.703 69.3333 109.484 76.7999 109.484 85.9999Z" fill="#1ABCFE"/>
</g>
</g>
</g>
<defs>
<filter id="filter0_d_15_483" x="0" y="0" width="149.492" height="180" filterUnits="userSpaceOnUse" color-interpolation-filters="sRGB">
<feFlood flood-opacity="0" result="BackgroundImageFix"/>
<feColorMatrix in="SourceAlpha" type="matrix" values="0 0 0 0 0 0 0 0 0 0 0 0 0 0 0 0 0 0 127 0" result="hardAlpha"/>
<feOffset dy="4"/>
<feGaussianBlur stdDeviation="20"/>
<feComposite in2="hardAlpha" operator="out"/>
<feColorMatrix type="matrix" values="0 0 0 0 1 0 0 0 0 1 0 0 0 0 1 0 0 0 1 0"/>
<feBlend mode="normal" in2="BackgroundImageFix" result="effect1_dropShadow_15_483"/>
<feBlend mode="normal" in="SourceGraphic" in2="effect1_dropShadow_15_483" result="shape"/>
</filter>
<clipPath id="clip0_15_483">
<rect x="40" y="36" width="69.4915" height="100" rx="22" fill="white"/>
</clipPath>
</defs>
</svg>
