<svg width="204" height="130" viewBox="0 0 204 130" fill="none" xmlns="http://www.w3.org/2000/svg">
<g id="NEXTJS" filter="url(#filter0_d_17_719)">
<g id="Group">
<g id="Vector 69">
<path d="M0 45.3289V99.2105H4.00113V49.6053L68.0192 130L4.00113 45.3289H0Z" fill="url(#paint0_linear_17_719)"/>
<path d="M50.6809 45.3289V99.2105H89.3585V96.6447H53.3484V72.6974H88.0248V70.1316H53.3484V47.8947H89.3585V45.3289H50.6809Z" fill="url(#paint1_linear_17_719)"/>
<path d="M113.365 70.9868L93.3596 45.3289H97.3608L116.033 69.2763L174.716 0L118.7 70.9868L141.373 99.2105H136.038L116.033 72.6974L96.027 99.2105H92.0259L113.365 70.9868Z" fill="url(#paint2_linear_17_719)"/>
<path d="M142.707 47.8947H162.712V99.2105H166.714V47.8947H186.719V45.3289H142.707V47.8947Z" fill="url(#paint3_linear_17_719)"/>
</g>
</g>
<path id=".JS" d="M175.024 97.521C175.024 97.2931 175.102 97.0994 175.257 96.9399C175.416 96.7759 175.608 96.6938 175.831 96.6938C176.054 96.6938 176.243 96.7759 176.398 96.9399C176.558 97.0994 176.638 97.2931 176.638 97.521C176.638 97.7489 176.558 97.9448 176.398 98.1089C176.243 98.2684 176.054 98.3481 175.831 98.3481C175.608 98.3481 175.416 98.2684 175.257 98.1089C175.102 97.9448 175.024 97.7489 175.024 97.521ZM179.837 88.7163V97.2681C179.828 97.5688 179.823 97.8149 179.823 98.0063C179.823 98.1932 179.805 98.4188 179.768 98.6831C179.737 98.952 179.691 99.1776 179.632 99.3599C179.577 99.5467 179.495 99.7541 179.386 99.9819C179.276 100.21 179.146 100.408 178.996 100.577C178.631 100.987 178.173 101.331 177.622 101.609L177.089 100.932C177.622 100.522 178.007 100.075 178.244 99.5923C178.481 99.1138 178.599 98.5008 178.599 97.7534V88.7163H179.837ZM182.147 96.4956C182.275 96.5868 182.391 96.6756 182.496 96.7622C182.605 96.8488 182.728 96.9308 182.865 97.0083C183.002 97.0812 183.143 97.145 183.289 97.1997C183.608 97.3273 183.966 97.3911 184.362 97.3911C185.028 97.3911 185.486 97.2293 185.736 96.9058C185.95 96.6278 186.057 96.3543 186.057 96.0854C186.057 95.812 186.03 95.5978 185.975 95.4429C185.871 95.174 185.661 94.9211 185.347 94.6841C185.214 94.5929 185.057 94.495 184.875 94.3901L183.754 93.8364C183.335 93.6086 183.015 93.3875 182.797 93.1733C182.578 92.9591 182.414 92.7609 182.305 92.5786C182.063 92.173 181.942 91.6466 181.942 90.9995C181.942 90.3524 182.177 89.7896 182.646 89.311C183.116 88.8325 183.726 88.5933 184.478 88.5933C184.957 88.5933 185.385 88.6548 185.764 88.7778C186.146 88.9009 186.449 89.049 186.673 89.2222L186.413 90.1655C185.871 89.7463 185.255 89.5366 184.567 89.5366C184.134 89.5366 183.795 89.6802 183.549 89.9673C183.307 90.2544 183.186 90.6235 183.186 91.0747C183.186 91.2798 183.221 91.4666 183.289 91.6353C183.403 91.936 183.64 92.2049 184 92.4419C184.141 92.5422 184.337 92.647 184.588 92.7563L185.661 93.3032C185.852 93.408 186.021 93.5129 186.167 93.6177C186.317 93.7179 186.465 93.841 186.611 93.9868C187.071 94.4471 187.302 95.0418 187.302 95.771C187.302 96.4956 187.053 97.1063 186.557 97.603C186.06 98.0998 185.413 98.3481 184.615 98.3481C183.74 98.3481 183.02 98.1932 182.455 97.8833C182.15 97.7192 181.908 97.5757 181.73 97.4526L182.147 96.4956Z" fill="white"/>
</g>
<defs>
<filter id="filter0_d_17_719" x="-40" y="-36" width="267.302" height="210" filterUnits="userSpaceOnUse" color-interpolation-filters="sRGB">
<feFlood flood-opacity="0" result="BackgroundImageFix"/>
<feColorMatrix in="SourceAlpha" type="matrix" values="0 0 0 0 0 0 0 0 0 0 0 0 0 0 0 0 0 0 127 0" result="hardAlpha"/>
<feOffset dy="4"/>
<feGaussianBlur stdDeviation="20"/>
<feComposite in2="hardAlpha" operator="out"/>
<feColorMatrix type="matrix" values="0 0 0 0 1 0 0 0 0 1 0 0 0 0 1 0 0 0 1 0"/>
<feBlend mode="normal" in2="BackgroundImageFix" result="effect1_dropShadow_17_719"/>
<feBlend mode="normal" in="SourceGraphic" in2="effect1_dropShadow_17_719" result="shape"/>
</filter>
<linearGradient id="paint0_linear_17_719" x1="93.3596" y1="0" x2="93.3596" y2="130" gradientUnits="userSpaceOnUse">
<stop offset="0.073301" stop-color="white"/>
<stop offset="0.732812" stop-color="#959595"/>
</linearGradient>
<linearGradient id="paint1_linear_17_719" x1="93.3596" y1="0" x2="93.3596" y2="130" gradientUnits="userSpaceOnUse">
<stop offset="0.073301" stop-color="white"/>
<stop offset="0.732812" stop-color="#959595"/>
</linearGradient>
<linearGradient id="paint2_linear_17_719" x1="93.3596" y1="0" x2="93.3596" y2="130" gradientUnits="userSpaceOnUse">
<stop offset="0.073301" stop-color="white"/>
<stop offset="0.732812" stop-color="#959595"/>
</linearGradient>
<linearGradient id="paint3_linear_17_719" x1="93.3596" y1="0" x2="93.3596" y2="130" gradientUnits="userSpaceOnUse">
<stop offset="0.073301" stop-color="white"/>
<stop offset="0.732812" stop-color="#959595"/>
</linearGradient>
</defs>
</svg>
