<svg width="166" height="180" viewBox="0 0 166 180" fill="none" xmlns="http://www.w3.org/2000/svg">
<g id="Node" filter="url(#filter0_d_15_513)">
<path id="Vector" d="M82.7386 135.814C81.4113 135.814 80.1725 135.448 79.0222 134.806L67.2536 127.562C65.4839 126.553 66.3688 126.186 66.8997 126.003C69.2888 125.177 69.7312 124.994 72.2088 123.527C72.4743 123.343 72.8282 123.435 73.0937 123.618L82.1192 129.212C82.4732 129.396 82.9156 129.396 83.1811 129.212L118.487 108.03C118.841 107.846 119.018 107.479 119.018 107.021V64.7477C119.018 64.2892 118.841 63.9224 118.487 63.739L83.1811 42.6482C82.8271 42.4648 82.3847 42.4648 82.1192 42.6482L46.8134 63.739C46.4595 63.9224 46.2825 64.3809 46.2825 64.7477V107.021C46.2825 107.388 46.4595 107.846 46.8134 108.03L56.4584 113.807C61.679 116.558 64.953 113.348 64.953 110.139V68.4156C64.953 67.8654 65.3954 67.3152 66.0148 67.3152H70.5276C71.0585 67.3152 71.5894 67.7737 71.5894 68.4156V110.139C71.5894 117.383 67.7845 121.601 61.1481 121.601C59.1129 121.601 57.5202 121.601 53.0074 119.309L43.7164 113.807C41.4158 112.431 40 109.864 40 107.113V64.8394C40 62.0884 41.4158 59.5208 43.7164 58.1453L79.0222 36.9628C81.2344 35.6791 84.2429 35.6791 86.455 36.9628L121.761 58.1453C124.061 59.5208 125.477 62.0884 125.477 64.8394V107.113C125.477 109.864 124.061 112.431 121.761 113.807L86.455 134.989C85.3047 135.539 83.9774 135.814 82.7386 135.814ZM93.6224 106.746C78.1374 106.746 74.9519 99.4099 74.9519 93.1744C74.9519 92.6242 75.3943 92.074 76.0137 92.074H80.615C81.1459 92.074 81.5883 92.4408 81.5883 92.991C82.2962 97.851 84.3314 100.235 93.7109 100.235C101.144 100.235 104.329 98.4929 104.329 94.3665C104.329 91.9823 103.444 90.24 91.8527 89.0479C82.2077 88.0392 76.1907 85.8384 76.1907 77.8606C76.1907 70.433 82.2077 66.0314 92.2951 66.0314C103.621 66.0314 109.196 70.0662 109.904 78.8693C109.904 79.1444 109.815 79.4195 109.638 79.6946C109.461 79.878 109.196 80.0614 108.93 80.0614H104.329C103.887 80.0614 103.444 79.6946 103.356 79.2361C102.294 74.1927 99.5509 72.5421 92.2951 72.5421C84.1544 72.5421 83.1811 75.4765 83.1811 77.6772C83.1811 80.3365 84.3314 81.1618 95.3036 82.629C106.187 84.0962 111.32 86.2052 111.32 94.0914C111.231 102.161 104.86 106.746 93.6224 106.746Z" fill="#539E43"/>
</g>
<defs>
<filter id="filter0_d_15_513" x="0" y="0" width="165.477" height="179.814" filterUnits="userSpaceOnUse" color-interpolation-filters="sRGB">
<feFlood flood-opacity="0" result="BackgroundImageFix"/>
<feColorMatrix in="SourceAlpha" type="matrix" values="0 0 0 0 0 0 0 0 0 0 0 0 0 0 0 0 0 0 127 0" result="hardAlpha"/>
<feOffset dy="4"/>
<feGaussianBlur stdDeviation="20"/>
<feComposite in2="hardAlpha" operator="out"/>
<feColorMatrix type="matrix" values="0 0 0 0 0.32549 0 0 0 0 0.619608 0 0 0 0 0.262745 0 0 0 1 0"/>
<feBlend mode="normal" in2="BackgroundImageFix" result="effect1_dropShadow_15_513"/>
<feBlend mode="normal" in="SourceGraphic" in2="effect1_dropShadow_15_513" result="shape"/>
</filter>
</defs>
</svg>
