<svg width="174" height="169" viewBox="0 0 174 169" fill="none" xmlns="http://www.w3.org/2000/svg">
<g id="react" filter="url(#filter0_d_15_506)">
<path id="Vector" d="M113.763 64.189L113.656 64.646L114.106 64.7817C115.138 65.0933 116.14 65.4225 117.105 65.7701C122.139 67.5818 126.252 69.8968 129.098 72.4671C131.947 75.0408 133.48 77.8259 133.48 80.5902C133.48 83.4772 131.839 86.4026 128.798 89.0972C125.763 91.7873 121.381 94.2002 116.037 96.0515L116.037 96.0515C115.474 96.2466 114.896 96.4346 114.306 96.617L113.859 96.7552L113.967 97.2105C114.178 98.0956 114.365 98.9643 114.526 99.8136C115.581 105.387 115.696 110.436 114.938 114.451C114.176 118.478 112.554 121.385 110.207 122.805C107.943 124.175 104.923 124.223 101.421 122.996C97.9228 121.771 94.011 119.293 90.0496 115.728C89.2138 114.976 88.3729 114.174 87.5299 113.325L87.1745 112.967L86.8197 113.325C86.1697 113.982 85.5219 114.608 84.8772 115.197C80.7884 118.934 76.667 121.557 72.97 122.871C69.2651 124.189 66.0607 124.17 63.7183 122.758C61.4466 121.388 59.8908 118.663 59.156 114.865C58.4227 111.074 58.5234 106.286 59.4987 100.915L59.4987 100.915C59.7042 99.783 59.9491 98.6212 60.2311 97.4346L60.3401 96.9757L59.8883 96.8402C59.0212 96.58 58.181 96.3064 57.3725 96.0174C52.2364 94.1819 48.0047 91.7593 45.0664 89.0653C42.1228 86.3665 40.5234 83.4414 40.5234 80.5902C40.5234 77.8316 42.0104 75.0606 44.7822 72.5047C47.5514 69.9513 51.5628 67.6534 56.4949 65.8554C57.5962 65.4541 58.7485 65.0764 59.9434 64.7217L60.3972 64.587L60.2875 64.1265C60.0262 63.0292 59.7953 61.9509 59.5979 60.8959L59.5979 60.8959C58.5747 55.4283 58.4294 50.5394 59.1322 46.67C59.8369 42.7905 61.3773 40.0143 63.6514 38.6378L63.3931 38.2111L63.6514 38.6378C66.0207 37.2037 69.2462 37.217 72.9989 38.6182C76.744 40.0164 80.9366 42.772 85.1483 46.6821C85.6609 47.158 86.1755 47.6562 86.6917 48.1725L87.0466 48.5274L87.4002 48.1712C88.1751 47.3906 88.9497 46.6465 89.7214 45.9443L89.3849 45.5745L89.7214 45.9443C93.739 42.2885 97.7122 39.7195 101.261 38.427C104.815 37.1322 107.87 37.1409 110.14 38.5097C112.518 39.9436 114.125 42.8855 114.841 46.9976C115.554 51.0979 115.364 56.2787 114.227 62.0493C114.089 62.7504 113.933 63.4645 113.763 64.189Z" stroke="url(#paint0_linear_15_506)"/>
<path id="Vector_2" d="M115.762 69.5819L115.931 69.1114L115.762 69.5819C120.07 71.1327 123.515 73.0467 125.872 74.9946C128.255 76.9635 129.429 78.8832 129.429 80.4337C129.429 82.0975 128.152 84.1508 125.588 86.2367C123.049 88.301 119.348 90.3141 114.738 91.9112C114.383 92.0341 114.022 92.1541 113.654 92.2717C112.493 88.5154 110.963 84.5443 109.113 80.4518C110.878 76.4579 112.347 72.5423 113.473 68.816C114.258 69.0603 115.022 69.3154 115.762 69.5819ZM110.551 100.472L110.551 100.472C111.484 105.399 111.611 109.825 111.002 113.258C110.449 116.375 109.359 118.29 108.159 119.016C106.888 119.785 104.762 119.726 101.994 118.615C99.2561 117.517 96.0148 115.436 92.6302 112.39L92.2958 112.762L92.6302 112.39C91.9631 111.79 91.2912 111.154 90.6167 110.486C93.1332 107.572 95.6429 104.223 98.0939 100.529C102.379 100.122 106.443 99.4766 110.161 98.6054C110.305 99.2386 110.436 99.8612 110.551 100.472ZM63.4999 59.9334L63.4998 59.9334C62.624 55.253 62.4818 51.1708 62.9138 48.0557C63.1299 46.498 63.4874 45.1975 63.9577 44.1894C64.4294 43.1786 64.9999 42.492 65.6252 42.1135L65.6252 42.1135C66.9785 41.2943 69.2973 41.4104 72.3128 42.6879C75.2916 43.9499 78.8128 46.2907 82.446 49.6639L82.7836 49.3003L82.4461 49.6639C82.7987 49.9913 83.1529 50.3308 83.5084 50.6804C80.9164 53.6239 78.3589 56.942 75.9101 60.5399C71.7391 60.9533 67.7358 61.5976 64.0272 62.4515C63.8305 61.5973 63.6539 60.7571 63.4999 59.9334ZM103.975 70.2472L103.537 70.4894L103.975 70.2472C103.215 68.8758 102.439 67.5307 101.65 66.2148C104.07 66.5623 106.4 66.9954 108.615 67.5072C107.935 69.7303 107.122 72.0356 106.187 74.3943C105.481 73.0194 104.743 71.6361 103.975 70.2472ZM74.303 88.2077L73.8656 88.4499L74.303 88.2077C72.8919 85.6593 71.5906 83.0901 70.4075 80.5341C71.5903 77.9721 72.8885 75.4 74.2915 72.856C75.6953 70.3106 77.1703 67.8542 78.6936 65.5109C81.3972 65.3035 84.1666 65.1954 86.9646 65.1954C89.7749 65.1954 92.5478 65.3043 95.2504 65.5134C96.7509 67.8398 98.2164 70.2888 99.6257 72.8345L100.063 72.5924L99.6257 72.8346C101.054 75.4138 102.369 77.9693 103.561 80.4769C102.372 83.0269 101.06 85.6075 99.6385 88.1855C98.2178 90.7613 96.7606 93.223 95.282 95.5508C92.5845 95.7462 89.8008 95.8468 86.9648 95.8468C84.1399 95.8468 81.3906 95.7578 78.7401 95.5837C77.2027 93.2259 75.7147 90.7574 74.303 88.2077ZM110.259 61.0458L110.749 61.1424L110.259 61.0458C110.165 61.5213 110.063 62.0039 109.952 62.4925C106.236 61.6212 102.23 60.9659 98.0479 60.5462C95.5961 56.9112 93.0594 53.5876 90.5078 50.6777C91.1135 50.0769 91.7178 49.5012 92.3194 48.9536C95.7584 45.8243 99.0655 43.6605 101.855 42.4991C104.681 41.323 106.837 41.2288 108.098 41.9891C108.771 42.3946 109.381 43.1338 109.882 44.2194C110.381 45.3021 110.757 46.6981 110.978 48.3665C111.422 51.703 111.24 56.0675 110.259 61.0458ZM71.8452 118.665C68.9952 119.718 66.8798 119.685 65.6867 118.965C64.4059 118.193 63.3872 116.221 62.9237 113.149C62.4657 110.112 62.5719 106.131 63.4053 101.541C63.5683 100.644 63.7578 99.7257 63.973 98.7885C67.652 99.6119 71.6879 100.212 75.9813 100.585C78.4526 104.205 81.034 107.548 83.6401 110.505C83.1573 110.985 82.6767 111.444 82.1989 111.881C78.5844 115.184 74.9857 117.506 71.8452 118.665ZM58.6335 91.8896C54.0936 90.2672 50.3723 88.1676 47.8404 85.9006C45.546 83.8461 44.5 81.8999 44.5 80.4337C44.5 78.8706 45.6321 76.963 47.9364 75.0164C50.2188 73.0883 53.565 71.1982 57.7791 69.662C58.6535 69.3432 59.5639 69.0398 60.5056 68.7517C61.6497 72.5624 63.1199 76.5285 64.8752 80.536C63.0961 84.605 61.6046 88.6358 60.4484 92.4942C59.8258 92.3006 59.2202 92.0992 58.6335 91.8896ZM82.4537 60.0883C83.9519 58.0667 85.4766 56.1686 87.0087 54.4152C88.5186 56.1522 90.0301 58.0522 91.5248 60.0906C90.0177 60.0299 88.4964 59.9986 86.9648 59.9986C85.4519 59.9986 83.9466 60.029 82.4537 60.0883ZM69.9384 70.2769C69.1887 71.6363 68.4675 73.0038 67.7759 74.3746C66.8576 72.0252 66.0534 69.713 65.3707 67.4653C67.5685 66.9674 69.8836 66.5457 72.2847 66.2057C71.4843 67.5362 70.7009 68.8944 69.9384 70.2769ZM69.9547 90.7947C70.7403 92.2137 71.5492 93.6088 72.3768 94.9763C69.8907 94.6591 67.5287 94.2566 65.3161 93.7715C66.013 91.473 66.8384 89.1018 67.7811 86.6912C68.4753 88.0624 69.2 89.4317 69.9547 90.7947ZM87.1167 106.745C85.5604 104.963 84.0082 103.03 82.482 100.97C83.9549 101.019 85.45 101.044 86.9648 101.044C88.5383 101.044 90.0972 101.013 91.637 100.955C90.134 103.046 88.6223 104.983 87.1167 106.745ZM106.235 86.5211C107.229 88.959 108.087 91.3258 108.797 93.5961C106.543 94.1152 104.143 94.5489 101.629 94.8926C102.426 93.5501 103.214 92.1736 103.991 90.7651C104.771 89.3506 105.519 87.9344 106.235 86.5211Z" stroke="url(#paint1_linear_15_506)"/>
<path id="Vector_3" d="M87.39 72C92.0236 72 95.78 75.9276 95.78 80.7727C95.78 85.6176 92.0236 89.5453 87.39 89.5453C82.7564 89.5453 79 85.6176 79 80.7727C79 75.9276 82.7564 72 87.39 72Z" fill="url(#paint2_linear_15_506)"/>
</g>
<defs>
<filter id="filter0_d_15_506" x="0.0234375" y="0.969238" width="173.957" height="167.407" filterUnits="userSpaceOnUse" color-interpolation-filters="sRGB">
<feFlood flood-opacity="0" result="BackgroundImageFix"/>
<feColorMatrix in="SourceAlpha" type="matrix" values="0 0 0 0 0 0 0 0 0 0 0 0 0 0 0 0 0 0 127 0" result="hardAlpha"/>
<feOffset dy="4"/>
<feGaussianBlur stdDeviation="20"/>
<feComposite in2="hardAlpha" operator="out"/>
<feColorMatrix type="matrix" values="0 0 0 0 1 0 0 0 0 1 0 0 0 0 1 0 0 0 1 0"/>
<feBlend mode="normal" in2="BackgroundImageFix" result="effect1_dropShadow_15_506"/>
<feBlend mode="normal" in="SourceGraphic" in2="effect1_dropShadow_15_506" result="shape"/>
</filter>
<linearGradient id="paint0_linear_15_506" x1="87.0018" y1="36.9692" x2="87" y2="176" gradientUnits="userSpaceOnUse">
<stop offset="0.000804861" stop-color="#53C1DE"/>
<stop offset="0.64182" stop-color="#53C1DE" stop-opacity="0.01"/>
</linearGradient>
<linearGradient id="paint1_linear_15_506" x1="86.9647" y1="41" x2="86.9647" y2="120.032" gradientUnits="userSpaceOnUse">
<stop stop-color="#53C1DE"/>
<stop offset="1" stop-color="#53C1DE" stop-opacity="0.03"/>
</linearGradient>
<linearGradient id="paint2_linear_15_506" x1="87.39" y1="72" x2="87.39" y2="89.5453" gradientUnits="userSpaceOnUse">
<stop stop-color="#53C1DE"/>
<stop offset="1" stop-color="#53C1DE" stop-opacity="0"/>
</linearGradient>
</defs>
</svg>
