<svg width="208" height="180" viewBox="0 0 208 180" fill="none" xmlns="http://www.w3.org/2000/svg">
<g id="sass" filter="url(#filter0_d_15_464)">
<path d="M149.974 93.3852C145.547 93.4115 141.713 94.5311 138.498 96.198C137.311 93.724 136.123 91.5623 135.926 89.948C135.703 88.073 135.431 86.9269 135.703 84.6876C135.975 82.4477 137.212 79.2707 137.212 79.0102C137.187 78.7759 136.939 77.63 134.392 77.604C131.845 77.578 129.643 78.1248 129.396 78.828C129.149 79.5311 128.654 81.1457 128.332 82.8123C127.887 85.2602 123.237 93.9321 120.591 98.4894C119.725 96.7186 118.983 95.1561 118.835 93.9058C118.612 92.0311 118.34 90.885 118.612 88.6457C118.884 86.4058 120.121 83.229 120.121 82.9686C120.096 82.7342 119.849 81.5884 117.302 81.5623C114.754 81.5363 112.553 82.0832 112.305 82.7863C112.058 83.4894 111.786 85.1561 111.242 86.7707C110.722 88.3852 104.539 102.864 102.931 106.64C102.115 108.568 101.398 110.104 100.878 111.146C100.359 112.187 100.854 111.224 100.804 111.328C100.359 112.213 100.112 112.708 100.112 112.708V112.734C99.7655 113.385 99.3945 114.01 99.2211 114.01C99.0974 114.01 98.8501 112.265 99.2705 109.87C100.186 104.844 102.412 97.0053 102.387 96.7188C102.387 96.5886 102.807 95.2082 100.952 94.5053C99.1469 93.8022 98.5041 94.974 98.3554 94.974C98.207 94.974 98.0834 95.3907 98.0834 95.3907C98.0834 95.3907 100.087 86.5628 94.2497 86.5628C90.5892 86.5628 85.5436 90.7556 83.0456 94.5837C81.4626 95.4951 78.0989 97.422 74.5373 99.4795C73.177 100.261 71.7672 101.094 70.4316 101.849L70.1598 101.536C63.0861 93.5936 50.0022 87.9686 50.5463 77.2915C50.7442 73.4113 52.0303 63.1769 75.6755 50.7811C95.0417 40.6248 110.549 43.4113 113.245 49.6092C117.079 58.4634 104.959 74.9217 84.8268 77.2915C77.1595 78.203 73.1278 75.078 72.114 73.9061C71.0504 72.6821 70.902 72.63 70.5063 72.8644C69.8632 73.229 70.259 74.3227 70.5063 74.9738C71.0999 76.6144 73.5732 79.5311 77.7779 80.9894C81.4629 82.2655 90.466 82.9686 101.349 78.5415C113.542 73.5675 123.064 59.7655 120.27 48.229C117.425 36.4842 98.9248 32.6301 81.4384 39.1665C71.0255 43.0728 59.7471 49.1665 51.6346 57.1613C41.9886 66.6405 40.4552 74.9217 41.0982 78.3592C43.3492 90.6248 59.4008 98.6196 65.8315 104.531C65.5099 104.713 65.2131 104.895 64.9411 105.052C61.7258 106.718 49.4828 113.463 46.4159 120.599C42.9532 128.671 46.96 134.479 49.6312 135.26C57.8921 137.682 66.3509 133.333 70.9265 126.172C75.4772 119.01 74.9333 109.713 72.831 105.469L72.7565 105.312L75.2793 103.75C76.912 102.734 78.5196 101.797 79.9292 100.989C79.1379 103.255 78.5688 105.937 78.2723 109.843C77.926 114.427 79.7068 120.364 82.0565 122.708C83.0953 123.723 84.3319 123.75 85.0987 123.75C87.8193 123.75 89.056 121.38 90.4163 118.541C92.0982 115.078 93.5822 111.067 93.5822 111.067C93.5822 111.067 91.7272 121.927 96.7975 121.927C98.6525 121.927 100.507 119.401 101.348 118.099V118.125C101.348 118.125 101.398 118.046 101.497 117.864C101.601 117.703 101.7 117.538 101.794 117.37V117.318C102.536 115.963 104.193 112.864 106.666 107.734C109.856 101.12 112.924 92.8384 112.924 92.8384C112.924 92.8384 113.22 94.8696 114.135 98.2029C114.679 100.182 115.867 102.344 116.782 104.453C116.04 105.547 115.594 106.172 115.594 106.172L115.619 106.198C115.026 107.031 114.358 107.917 113.666 108.802C111.143 111.979 108.125 115.599 107.73 116.641C107.26 117.865 107.359 118.776 108.274 119.506C108.941 120.026 110.129 120.13 111.39 120.026C113.666 119.87 115.248 119.271 116.04 118.906C117.277 118.438 118.686 117.734 120.047 116.693C122.52 114.766 124.029 112.032 123.88 108.386C123.806 106.381 123.188 104.401 122.421 102.526C122.644 102.188 122.867 101.849 123.089 101.485C126.997 95.4688 130.014 88.8545 130.014 88.8545C130.014 88.8545 130.311 90.8858 131.226 94.2191C131.696 95.9118 132.636 97.761 133.477 99.5839C129.816 102.735 127.516 106.381 126.725 108.777C125.265 113.204 126.403 115.209 128.555 115.678C129.519 115.886 130.905 115.417 131.943 114.949C133.229 114.506 134.787 113.75 136.222 112.631C138.696 110.704 141.07 108.021 140.946 104.402C140.872 102.735 140.452 101.094 139.883 99.5319C142.999 98.1777 147.03 97.3964 152.15 98.0475C163.157 99.4016 165.333 106.641 164.913 109.662C164.493 112.683 162.192 114.35 161.425 114.87C160.659 115.365 160.411 115.548 160.486 115.912C160.584 116.459 160.931 116.433 161.599 116.329C162.514 116.172 167.386 113.855 167.584 108.282C167.881 101.12 161.425 93.3074 149.974 93.3852ZM65.0895 123.515C61.4537 127.708 56.3339 129.297 54.1574 127.943C51.8077 126.51 52.7226 120.338 57.1996 115.885C59.9202 113.177 63.4571 110.677 65.782 109.14C66.3014 108.802 67.0929 108.307 68.0327 107.708C68.1811 107.604 68.2801 107.552 68.2801 107.552C68.4532 107.448 68.6511 107.318 68.8489 107.187C70.5061 113.541 68.9231 119.114 65.0895 123.515ZM91.6777 104.479C90.4163 107.734 87.7451 116.094 86.1375 115.625C84.7521 115.234 83.9115 108.906 85.8651 102.656C86.8545 99.5048 88.9568 95.755 90.1935 94.2964C92.1971 91.9527 94.3734 91.1714 94.9177 92.135C95.5608 93.3852 92.4692 102.448 91.6777 104.479ZM113.616 115.521C113.072 115.807 112.577 116.015 112.355 115.859C112.182 115.755 112.577 115.365 112.577 115.365C112.577 115.365 115.322 112.266 116.411 110.833C117.029 110 117.771 109.037 118.562 107.943V108.255C118.563 112.005 115.15 114.505 113.616 115.521ZM130.533 111.458C130.138 111.146 130.187 110.182 131.523 107.161C132.042 105.963 133.229 103.958 135.282 102.057C135.529 102.838 135.678 103.593 135.653 104.297C135.629 108.984 132.463 110.729 130.533 111.458Z" fill="#CF649A"/>
</g>
<defs>
<filter id="filter0_d_15_464" x="0.970703" y="0" width="206.623" height="179.935" filterUnits="userSpaceOnUse" color-interpolation-filters="sRGB">
<feFlood flood-opacity="0" result="BackgroundImageFix"/>
<feColorMatrix in="SourceAlpha" type="matrix" values="0 0 0 0 0 0 0 0 0 0 0 0 0 0 0 0 0 0 127 0" result="hardAlpha"/>
<feOffset dy="4"/>
<feGaussianBlur stdDeviation="20"/>
<feComposite in2="hardAlpha" operator="out"/>
<feColorMatrix type="matrix" values="0 0 0 0 0.811765 0 0 0 0 0.392157 0 0 0 0 0.603922 0 0 0 1 0"/>
<feBlend mode="normal" in2="BackgroundImageFix" result="effect1_dropShadow_15_464"/>
<feBlend mode="normal" in="SourceGraphic" in2="effect1_dropShadow_15_464" result="shape"/>
</filter>
</defs>
</svg>
