<svg width="180" height="180" viewBox="0 0 180 180" fill="none" xmlns="http://www.w3.org/2000/svg">
<g id="TypeScript" filter="url(#filter0_d_15_518)">
<path id="Vector" d="M40 86V136H90H140V86V36H90H40V86Z" fill="#007ACC"/>
<path id="Vector_2" d="M62.113 86.3318L62.0812 90.427H68.5892H75.0971V108.919V127.411H79.7003H84.3035V108.919V90.427H90.8114H97.3193V86.4111C97.3193 84.1889 97.2717 82.3318 97.2082 82.2841C97.1606 82.2207 89.24 82.1889 79.6368 82.2048L62.1606 82.2524L62.113 86.3318Z" fill="white"/>
<path id="Vector_3" d="M120.691 82.1362C123.23 82.7712 125.167 83.8981 126.945 85.7394C127.865 86.7235 129.23 88.5172 129.341 88.9458C129.373 89.0727 125.024 91.9934 122.389 93.6283C122.294 93.6918 121.913 93.2791 121.484 92.6442C120.199 90.7711 118.849 89.9616 116.786 89.8188C113.754 89.6124 111.802 91.1997 111.818 93.8505C111.818 94.6283 111.929 95.0886 112.246 95.7235C112.913 97.1045 114.151 97.9299 118.04 99.6124C125.199 102.692 128.262 104.724 130.167 107.612C132.294 110.835 132.77 115.977 131.326 119.803C129.738 123.962 125.802 126.787 120.262 127.724C118.548 128.025 114.484 127.977 112.643 127.644C108.627 126.93 104.818 124.946 102.468 122.343C101.548 121.327 99.7542 118.676 99.8653 118.485C99.9129 118.422 100.326 118.168 100.786 117.898C101.23 117.644 102.913 116.676 104.5 115.755L107.373 114.089L107.976 114.977C108.818 116.263 110.659 118.025 111.77 118.612C114.961 120.295 119.341 120.057 121.5 118.12C122.421 117.279 122.802 116.406 122.802 115.12C122.802 113.962 122.659 113.454 122.056 112.581C121.278 111.47 119.691 110.533 115.183 108.581C110.024 106.358 107.802 104.977 105.77 102.787C104.595 101.517 103.484 99.4854 103.024 97.787C102.643 96.3743 102.548 92.8346 102.849 91.4061C103.913 86.4219 107.675 82.9458 113.103 81.914C114.865 81.5807 118.961 81.7077 120.691 82.1362Z" fill="white"/>
</g>
<defs>
<filter id="filter0_d_15_518" x="0" y="0" width="180" height="180" filterUnits="userSpaceOnUse" color-interpolation-filters="sRGB">
<feFlood flood-opacity="0" result="BackgroundImageFix"/>
<feColorMatrix in="SourceAlpha" type="matrix" values="0 0 0 0 0 0 0 0 0 0 0 0 0 0 0 0 0 0 127 0" result="hardAlpha"/>
<feOffset dy="4"/>
<feGaussianBlur stdDeviation="20"/>
<feComposite in2="hardAlpha" operator="out"/>
<feColorMatrix type="matrix" values="0 0 0 0 0 0 0 0 0 0.478431 0 0 0 0 0.8 0 0 0 1 0"/>
<feBlend mode="normal" in2="BackgroundImageFix" result="effect1_dropShadow_15_518"/>
<feBlend mode="normal" in="SourceGraphic" in2="effect1_dropShadow_15_518" result="shape"/>
</filter>
</defs>
</svg>
