<svg width="168" height="173" viewBox="0 0 168 173" fill="none" xmlns="http://www.w3.org/2000/svg">
<g id="webpack" filter="url(#filter0_d_16_700)">
<g id="Vector 1">
<path d="M82 38L43 58.5L56.5 66.5L81.5 53.5L82 38Z" fill="url(#paint0_radial_16_700)"/>
<path d="M55 69L41 61.5V103.5L55 96.5V69Z" fill="url(#paint1_radial_16_700)"/>
<path d="M57.5 98L42.5 106.5L81.5 127.5V110L57.5 98Z" fill="url(#paint2_radial_16_700)"/>
<path d="M109 98L85 110V128L125 106.5L109 98Z" fill="url(#paint3_radial_16_700)"/>
<path d="M112 96V69L126.5 60.5V104L112 96Z" fill="url(#paint4_radial_16_700)"/>
<path d="M85.2486 53.5L110.5 66.5L126 58.5L85.2486 37V53.5Z" fill="url(#paint5_radial_16_700)"/>
<path d="M83.5 56L59.5 68L83.5 81L107.5 68L83.5 56Z" fill="url(#paint6_radial_16_700)"/>
<path d="M58 94.5V70L82 82.5V106.5L58 94.5Z" fill="url(#paint7_radial_16_700)"/>
<path d="M85.2486 82.5V106.5L109 94.5V70L85.2486 82.5Z" fill="url(#paint8_radial_16_700)"/>
<path d="M82 38L43 58.5L56.5 66.5L81.5 53.5L82 38Z" stroke="url(#paint9_linear_16_700)"/>
<path d="M55 69L41 61.5V103.5L55 96.5V69Z" stroke="url(#paint10_linear_16_700)"/>
<path d="M57.5 98L42.5 106.5L81.5 127.5V110L57.5 98Z" stroke="url(#paint11_linear_16_700)"/>
<path d="M109 98L85 110V128L125 106.5L109 98Z" stroke="url(#paint12_linear_16_700)"/>
<path d="M112 96V69L126.5 60.5V104L112 96Z" stroke="url(#paint13_linear_16_700)"/>
<path d="M85.2486 53.5L110.5 66.5L126 58.5L85.2486 37V53.5Z" stroke="url(#paint14_linear_16_700)"/>
<path d="M83.5 56L59.5 68L83.5 81L107.5 68L83.5 56Z" stroke="url(#paint15_linear_16_700)"/>
<path d="M58 94.5V70L82 82.5V106.5L58 94.5Z" stroke="url(#paint16_linear_16_700)"/>
<path d="M85.2486 82.5V106.5L109 94.5V70L85.2486 82.5Z" stroke="url(#paint17_linear_16_700)"/>
</g>
</g>
<defs>
<filter id="filter0_d_16_700" x="0.5" y="0.170898" width="166.581" height="172.666" filterUnits="userSpaceOnUse" color-interpolation-filters="sRGB">
<feFlood flood-opacity="0" result="BackgroundImageFix"/>
<feColorMatrix in="SourceAlpha" type="matrix" values="0 0 0 0 0 0 0 0 0 0 0 0 0 0 0 0 0 0 127 0" result="hardAlpha"/>
<feOffset dy="4"/>
<feGaussianBlur stdDeviation="20"/>
<feComposite in2="hardAlpha" operator="out"/>
<feColorMatrix type="matrix" values="0 0 0 0 0.32549 0 0 0 0 0.756863 0 0 0 0 0.870588 0 0 0 1 0"/>
<feBlend mode="normal" in2="BackgroundImageFix" result="effect1_dropShadow_16_700"/>
<feBlend mode="normal" in="SourceGraphic" in2="effect1_dropShadow_16_700" result="shape"/>
</filter>
<radialGradient id="paint0_radial_16_700" cx="0" cy="0" r="1" gradientUnits="userSpaceOnUse" gradientTransform="translate(84 82) rotate(90.3114) scale(46.0007 52.6048)">
<stop offset="0.453125" stop-color="#53C1DE"/>
<stop offset="0.578125" stop-color="#2196F3"/>
<stop offset="0.651042" stop-color="#2196F3"/>
</radialGradient>
<radialGradient id="paint1_radial_16_700" cx="0" cy="0" r="1" gradientUnits="userSpaceOnUse" gradientTransform="translate(84 82) rotate(90.3114) scale(46.0007 52.6048)">
<stop offset="0.453125" stop-color="#53C1DE"/>
<stop offset="0.578125" stop-color="#2196F3"/>
<stop offset="0.651042" stop-color="#2196F3"/>
</radialGradient>
<radialGradient id="paint2_radial_16_700" cx="0" cy="0" r="1" gradientUnits="userSpaceOnUse" gradientTransform="translate(84 82) rotate(90.3114) scale(46.0007 52.6048)">
<stop offset="0.453125" stop-color="#53C1DE"/>
<stop offset="0.578125" stop-color="#2196F3"/>
<stop offset="0.651042" stop-color="#2196F3"/>
</radialGradient>
<radialGradient id="paint3_radial_16_700" cx="0" cy="0" r="1" gradientUnits="userSpaceOnUse" gradientTransform="translate(84 82) rotate(90.3114) scale(46.0007 52.6048)">
<stop offset="0.453125" stop-color="#53C1DE"/>
<stop offset="0.578125" stop-color="#2196F3"/>
<stop offset="0.651042" stop-color="#2196F3"/>
</radialGradient>
<radialGradient id="paint4_radial_16_700" cx="0" cy="0" r="1" gradientUnits="userSpaceOnUse" gradientTransform="translate(84 82) rotate(90.3114) scale(46.0007 52.6048)">
<stop offset="0.453125" stop-color="#53C1DE"/>
<stop offset="0.578125" stop-color="#2196F3"/>
<stop offset="0.651042" stop-color="#2196F3"/>
</radialGradient>
<radialGradient id="paint5_radial_16_700" cx="0" cy="0" r="1" gradientUnits="userSpaceOnUse" gradientTransform="translate(84 82) rotate(90.3114) scale(46.0007 52.6048)">
<stop offset="0.453125" stop-color="#53C1DE"/>
<stop offset="0.578125" stop-color="#2196F3"/>
<stop offset="0.651042" stop-color="#2196F3"/>
</radialGradient>
<radialGradient id="paint6_radial_16_700" cx="0" cy="0" r="1" gradientUnits="userSpaceOnUse" gradientTransform="translate(84 82) rotate(90.3114) scale(46.0007 52.6048)">
<stop offset="0.453125" stop-color="#53C1DE"/>
<stop offset="0.578125" stop-color="#2196F3"/>
<stop offset="0.651042" stop-color="#2196F3"/>
</radialGradient>
<radialGradient id="paint7_radial_16_700" cx="0" cy="0" r="1" gradientUnits="userSpaceOnUse" gradientTransform="translate(84 82) rotate(90.3114) scale(46.0007 52.6048)">
<stop offset="0.453125" stop-color="#53C1DE"/>
<stop offset="0.578125" stop-color="#2196F3"/>
<stop offset="0.651042" stop-color="#2196F3"/>
</radialGradient>
<radialGradient id="paint8_radial_16_700" cx="0" cy="0" r="1" gradientUnits="userSpaceOnUse" gradientTransform="translate(84 82) rotate(90.3114) scale(46.0007 52.6048)">
<stop offset="0.453125" stop-color="#53C1DE"/>
<stop offset="0.578125" stop-color="#2196F3"/>
<stop offset="0.651042" stop-color="#2196F3"/>
</radialGradient>
<linearGradient id="paint9_linear_16_700" x1="83.75" y1="37" x2="83.75" y2="128" gradientUnits="userSpaceOnUse">
<stop stop-color="#DC4DF3"/>
<stop offset="1" stop-color="#0074C8"/>
</linearGradient>
<linearGradient id="paint10_linear_16_700" x1="83.75" y1="37" x2="83.75" y2="128" gradientUnits="userSpaceOnUse">
<stop stop-color="#DC4DF3"/>
<stop offset="1" stop-color="#0074C8"/>
</linearGradient>
<linearGradient id="paint11_linear_16_700" x1="83.75" y1="37" x2="83.75" y2="128" gradientUnits="userSpaceOnUse">
<stop stop-color="#DC4DF3"/>
<stop offset="1" stop-color="#0074C8"/>
</linearGradient>
<linearGradient id="paint12_linear_16_700" x1="83.75" y1="37" x2="83.75" y2="128" gradientUnits="userSpaceOnUse">
<stop stop-color="#DC4DF3"/>
<stop offset="1" stop-color="#0074C8"/>
</linearGradient>
<linearGradient id="paint13_linear_16_700" x1="83.75" y1="37" x2="83.75" y2="128" gradientUnits="userSpaceOnUse">
<stop stop-color="#DC4DF3"/>
<stop offset="1" stop-color="#0074C8"/>
</linearGradient>
<linearGradient id="paint14_linear_16_700" x1="83.75" y1="37" x2="83.75" y2="128" gradientUnits="userSpaceOnUse">
<stop stop-color="#DC4DF3"/>
<stop offset="1" stop-color="#0074C8"/>
</linearGradient>
<linearGradient id="paint15_linear_16_700" x1="83.75" y1="37" x2="83.75" y2="128" gradientUnits="userSpaceOnUse">
<stop stop-color="#DC4DF3"/>
<stop offset="1" stop-color="#0074C8"/>
</linearGradient>
<linearGradient id="paint16_linear_16_700" x1="83.75" y1="37" x2="83.75" y2="128" gradientUnits="userSpaceOnUse">
<stop stop-color="#DC4DF3"/>
<stop offset="1" stop-color="#0074C8"/>
</linearGradient>
<linearGradient id="paint17_linear_16_700" x1="83.75" y1="37" x2="83.75" y2="128" gradientUnits="userSpaceOnUse">
<stop stop-color="#DC4DF3"/>
<stop offset="1" stop-color="#0074C8"/>
</linearGradient>
</defs>
</svg>
