<svg width="107" height="112" viewBox="0 0 107 112" fill="none" xmlns="http://www.w3.org/2000/svg">
<g id="Zeplin">
<ellipse id="Ellipse 90" cx="56.938" cy="53.3864" rx="43.2848" ry="25.2487" transform="rotate(-20.1494 56.938 53.3864)" fill="url(#paint0_linear_112_186)"/>
<g id="Vector 80">
<path d="M1 59.0912L18 52.5C12.4035 67.5049 15.166 73.3592 28.5 79.5L11 85.5911V70.0912L1 59.0912Z" fill="url(#paint1_linear_112_186)"/>
<path d="M59.5 91.0911C47.5 84.0911 41.5 12.0912 53.5 15.0912C57 17.5911 57.5 21.5 59.5 26.5M18 52.5L1 59.0912L11 70.0912V85.5911L28.5 79.5C15.166 73.3592 12.4035 67.5049 18 52.5Z" stroke="url(#paint2_linear_112_186)" stroke-linejoin="round"/>
</g>
<path id="Vector 82" d="M47 30.4998C39.5 22.5001 36.6199 21.8304 33.4998 22.4999C27 30.4999 66.9996 88.4999 78.9998 83.9999C81 82.5 77 73.5 76 72.5" stroke="url(#paint3_linear_112_186)"/>
<path id="Vector 81" d="M60 91C63.2642 90.2791 65 85.2069 65 77" stroke="url(#paint4_linear_112_186)" stroke-linejoin="round"/>
</g>
<defs>
<linearGradient id="paint0_linear_112_186" x1="60.8748" y1="28.3221" x2="56.6223" y2="80.554" gradientUnits="userSpaceOnUse">
<stop stop-color="#FDBD39"/>
<stop offset="0.962312" stop-color="#EE6723" stop-opacity="0.57"/>
</linearGradient>
<linearGradient id="paint1_linear_112_186" x1="10" y1="56" x2="20.5" y2="83" gradientUnits="userSpaceOnUse">
<stop stop-color="#F2AC39"/>
<stop offset="1" stop-color="#EE6723" stop-opacity="0.47"/>
</linearGradient>
<linearGradient id="paint2_linear_112_186" x1="30.25" y1="15" x2="30.25" y2="91.0911" gradientUnits="userSpaceOnUse">
<stop offset="0.324926" stop-color="#E89F39"/>
<stop offset="0.628528" stop-color="#B96B3D"/>
</linearGradient>
<linearGradient id="paint3_linear_112_186" x1="80" y1="84.5" x2="30" y2="17.5" gradientUnits="userSpaceOnUse">
<stop stop-color="#EE6723"/>
<stop offset="1" stop-color="#EE6723" stop-opacity="0"/>
</linearGradient>
<linearGradient id="paint4_linear_112_186" x1="60.4167" y1="91.5385" x2="66.8549" y2="78.0872" gradientUnits="userSpaceOnUse">
<stop offset="0.0520833" stop-color="white" stop-opacity="0"/>
<stop offset="0.541667" stop-color="#E26729"/>
<stop offset="0.890625" stop-color="#D4853A" stop-opacity="0.04"/>
</linearGradient>
</defs>
</svg>
