<svg width="23" height="14" viewBox="0 0 23 14" fill="none" xmlns="http://www.w3.org/2000/svg">
<g id="Group 96">
<path id="Vector 1" d="M11.1142 5.24851C10.4114 5.45621 9.12277 6.30322 9.00563 6.40721C8.88848 6.5112 10.6396 5.97563 10.6396 5.97563C10.6396 5.97563 11.4596 5.76776 11.8111 5.97563C12.1625 6.18349 11.6832 7.50525 11.5828 7.86139C11.4824 8.21753 11.1142 8.90008 11.1142 8.90008C11.1142 8.90008 10.5225 10.0265 10.4054 10.2343C10.2882 10.442 9.94292 10.8906 9.94278 11.1852C9.94264 11.4798 9.98519 11.5142 10.4114 11.393C10.8375 11.2717 13.0997 9.31556 13.0997 9.31556C13.0997 9.31556 13.4051 11.3573 13.5682 11.4807C13.5938 11.5 13.8125 11.75 14.25 11.5C14.25 11.5 16.6139 9.92248 16.8482 10.0265C17.0825 10.1305 15.6768 11.896 15.911 11.8961C16.1453 11.8963 22.8226 12 22.8226 12C22.8226 12 23.2911 11.8961 22.7054 11.7923C22.1197 11.6884 21.2997 11.5845 20.5968 11.4807C19.8939 11.3768 17.5511 11.169 17.5511 11.169C17.5511 11.169 18.0196 10.2343 18.0196 9.92261C18.0196 9.61093 17.7914 9.41931 17.5571 9.31556C17.3229 9.21182 16.8543 9.21169 16.3857 9.31556C15.9171 9.41943 14.5053 10.5459 14.3882 10.3381C14.271 10.1302 13.9197 8.4685 14.3883 7.63754C14.8568 6.80658 13.334 8.05302 13.334 8.05302C13.334 8.05302 12.6311 8.58848 12.3968 8.69235C12.1625 8.79621 12.7185 8.58423 12.8714 7.53363C13.0243 6.48304 12.9582 6.16987 12.8714 5.66402C12.7845 5.15817 12.631 5.1446 12.5139 5.04074C12.3967 4.93687 11.8171 5.04082 11.1142 5.24851Z" fill="#00FFC2"/>
<path id="Vector" d="M2.77225 10.687C1.96874 9.74902 2.15434 8.56683 2.67504 7.4261C3.07016 6.56052 3.64575 5.7453 4.0927 5.11227C4.23478 4.91104 4.36386 4.72822 4.47001 4.56805C4.52472 4.48549 4.56497 4.42042 4.5912 4.37204C4.60418 4.3481 4.61509 4.32576 4.62255 4.30601C4.62627 4.29617 4.63003 4.28465 4.63241 4.2724C4.63445 4.26188 4.63745 4.24142 4.63165 4.21804C4.62453 4.1893 4.60343 4.15668 4.56363 4.14257C4.53215 4.1314 4.50466 4.13793 4.49297 4.14138C4.46829 4.14866 4.4463 4.16329 4.43199 4.17352C4.3994 4.19684 4.35767 4.23394 4.31033 4.27943C4.11925 4.46305 3.77846 4.8405 3.39234 5.29004C2.6205 6.18864 1.6494 7.39645 1.30482 7.96071C0.620428 9.08141 0.210832 10.2586 0.372763 11.194C0.454505 11.6661 0.682025 12.076 1.08951 12.3801C1.49486 12.6826 2.07062 12.8747 2.84064 12.929C4.38453 13.038 6.10061 12.3883 7.2211 11.7868C7.78006 11.4867 8.20351 11.1919 8.38598 10.9999C8.43067 10.9529 8.47021 10.9027 8.48877 10.8532C8.49831 10.8277 8.50626 10.7921 8.49583 10.7536C8.48424 10.7109 8.45478 10.6819 8.42204 10.6656C8.39239 10.6509 8.36015 10.6464 8.33202 10.6455C8.30278 10.6446 8.27052 10.6474 8.23621 10.6529C8.16761 10.6638 8.08136 10.6868 7.97742 10.7218C7.82154 10.7742 7.66045 10.8306 7.49532 10.8885C6.79239 11.1348 6.01621 11.4067 5.25708 11.5026C4.32549 11.6202 3.44246 11.4694 2.77225 10.687Z" fill="#7B61FF" stroke="#00FFC2" stroke-width="0.2"/>
<path id="Vector_2" d="M9.0155 2.8476C8.94042 2.60592 8.76322 2.38789 8.42891 2.22611C8.13229 2.08256 7.77231 2.09606 7.39285 2.20447C7.01452 2.31256 6.62992 2.51139 6.29526 2.71984C5.96131 2.92786 5.68117 3.14287 5.51216 3.28014C5.42776 3.34869 5.37136 3.39762 5.35015 3.41627L5.34146 3.42394L5.34137 3.42402L5.34101 3.42435L5.34093 3.42442L5.34041 3.42489C5.33954 3.42565 5.1989 3.41614 5.20666 3.2762L5.20719 3.27571L5.20746 3.27547L5.20763 3.27532L5.20763 3.27532L9.0155 2.8476ZM9.0155 2.8476C9.09168 3.09282 9.06692 3.37601 8.96973 3.67185M9.0155 2.8476L8.96973 3.67185M8.96973 3.67185C8.77478 4.26526 8.30008 4.87332 7.87879 5.2384M8.96973 3.67185L7.87879 5.2384M7.87879 5.2384C7.77112 5.33171 7.70452 5.39371 7.67406 5.42617M7.87879 5.2384L7.67406 5.42617M7.67406 5.42617C7.6672 5.43347 7.65786 5.44377 7.6507 5.45445M7.67406 5.42617L7.6507 5.45445M7.6507 5.45445C7.64866 5.45748 7.64548 5.46248 7.64242 5.46885M7.6507 5.45445L7.64242 5.46885M7.64242 5.46885C7.64026 5.47332 7.63344 5.48778 7.63223 5.50759M7.64242 5.46885L7.63223 5.50759M7.63223 5.50759C7.63077 5.53159 7.63861 5.57641 7.68332 5.60157M7.63223 5.50759L7.68332 5.60157M7.68332 5.60157C7.71548 5.61967 7.74573 5.61394 7.75207 5.61274M7.68332 5.60157L7.75207 5.61274M7.75207 5.61274L7.75207 5.61274M7.75207 5.61274L7.75207 5.61274M7.75207 5.61274C7.76919 5.6095 7.78233 5.60228 7.78555 5.60051M7.75207 5.61274L7.78555 5.60051M7.78555 5.60051L7.78586 5.60034M7.78555 5.60051L7.78586 5.60034M7.78586 5.60034C7.79141 5.59731 7.79657 5.59402 7.80078 5.59122M7.78586 5.60034L7.80078 5.59122M7.80078 5.59122C7.80938 5.58548 7.81919 5.57826 7.82959 5.57025M7.80078 5.59122L7.82959 5.57025M7.82959 5.57025C7.91131 5.50724 8.10465 5.33634 8.34372 5.08821M7.82959 5.57025L8.34372 5.08821M8.34372 5.08821C8.8215 4.59231 9.49759 3.77187 9.83588 2.86113M8.34372 5.08821L9.83588 2.86113M9.83588 2.86113C9.9519 2.54879 10.0328 2.26738 10.0619 2.02564M9.83588 2.86113L10.0619 2.02564M10.0619 2.02564C10.0909 1.78516 10.0702 1.57074 9.96751 1.40404M10.0619 2.02564L9.96751 1.40404M9.96751 1.40404C9.8623 1.2332 9.68313 1.13152 9.43822 1.09321M9.96751 1.40404L9.43822 1.09321M9.43822 1.09321C9.19588 1.0553 8.88085 1.07764 8.48495 1.15971M9.43822 1.09321L8.48495 1.15971M8.48495 1.15971C7.07097 1.45286 5.97806 2.52514 5.44291 3.05018M8.48495 1.15971L5.44291 3.05018M5.44291 3.05018C5.37331 3.11846 5.31315 3.17749 5.26294 3.22434M5.44291 3.05018L5.26294 3.22434M5.26294 3.22434C5.23535 3.25009 5.21843 3.26554 5.21127 3.27203M5.26294 3.22434L5.21127 3.27203M5.21127 3.27203L5.20774 3.27522L5.21127 3.27203Z" fill="#7B61FF" stroke="#00FFC2" stroke-width="0.2"/>
</g>
</svg>
