<svg width="24" height="14" viewBox="0 0 24 14" fill="none" xmlns="http://www.w3.org/2000/svg">
<g id="Group 98">
<path id="Vector 1" d="M22.8226 12L22.8442 12.0976L22.8443 12.0976L22.8445 12.0976L22.8449 12.0975L22.8463 12.0972L22.8509 12.0961L22.8668 12.0921C22.8798 12.0887 22.8979 12.0837 22.9177 12.0772C22.9516 12.0661 23.0107 12.0448 23.05 12.0099C23.0696 11.9925 23.1054 11.9527 23.0993 11.8934C23.0934 11.8359 23.052 11.8016 23.0243 11.7841C22.9674 11.748 22.8687 11.7197 22.7229 11.6938C22.3306 11.6242 21.8327 11.5545 21.3369 11.4851C21.0901 11.4505 20.8438 11.4161 20.6114 11.3817C20.2569 11.3293 19.4927 11.2512 18.82 11.1864C18.483 11.1539 18.168 11.1246 17.9372 11.1035L17.7044 11.0824C17.7077 11.0755 17.7111 11.0684 17.7146 11.061C17.7589 10.9678 17.818 10.84 17.8772 10.7022C17.9363 10.5646 17.9961 10.4157 18.0413 10.2805C18.0852 10.149 18.1196 10.0184 18.1196 9.92261C18.1196 9.55203 17.8463 9.33424 17.5976 9.22413C17.4617 9.16395 17.2697 9.13772 17.0593 9.13771C16.8464 9.13769 16.6048 9.16457 16.3641 9.21793C16.2292 9.24782 16.04 9.34623 15.8419 9.46205C15.6782 9.55779 15.4984 9.67154 15.3234 9.78232C15.2825 9.80817 15.2419 9.83386 15.2018 9.85913C14.988 9.99392 14.7901 10.1157 14.6391 10.1912C14.5627 10.2293 14.5052 10.252 14.467 10.2604C14.4655 10.2607 14.464 10.261 14.4627 10.2613C14.4542 10.2402 14.4435 10.2094 14.4312 10.168C14.4122 10.1041 14.3913 10.0215 14.3707 9.92449C14.3294 9.73044 14.2898 9.48154 14.2682 9.21345C14.2246 8.67112 14.2568 8.07429 14.4754 7.68666C14.5342 7.5824 14.5723 7.49373 14.5773 7.42385C14.5799 7.38687 14.5742 7.33854 14.5387 7.29976C14.5028 7.26062 14.4555 7.2519 14.4212 7.2519C14.3575 7.2519 14.2833 7.28141 14.2167 7.31401C14.1453 7.34892 14.0647 7.3967 13.9826 7.44963C13.8182 7.55568 13.64 7.68743 13.5037 7.7919C13.4354 7.84428 13.3773 7.89012 13.3362 7.92289L13.2881 7.96147L13.2752 7.97191L13.2721 7.97448L13.2714 7.97495L13.2656 7.97938L13.2431 7.9964C13.2235 8.01114 13.1953 8.03234 13.1607 8.05812C13.0915 8.10969 12.9969 8.17948 12.895 8.25244C12.8347 8.29564 12.7721 8.3398 12.7109 8.38187C12.8144 8.18813 12.9166 7.91692 12.9703 7.54804C13.0473 7.01962 13.0697 6.67237 13.0612 6.39152C13.0533 6.13037 13.0186 5.92903 12.9791 5.70005C12.976 5.68257 12.973 5.66493 12.9699 5.6471C12.9251 5.38594 12.8608 5.23728 12.782 5.13905C12.7426 5.08992 12.7022 5.05682 12.6663 5.03035C12.6534 5.02081 12.6423 5.01293 12.6323 5.00585C12.6123 4.99163 12.5968 4.98065 12.5802 4.96591C12.5482 4.9375 12.5083 4.92256 12.4718 4.91398C12.4342 4.90513 12.3916 4.90108 12.3466 4.90019C12.2564 4.89841 12.1445 4.9091 12.0181 4.929C11.7647 4.96892 11.4394 5.04814 11.0859 5.15261C10.7213 5.26034 10.214 5.53 9.78944 5.78064C9.57569 5.90684 9.38033 6.0298 9.23082 6.12789C9.08454 6.22386 8.97513 6.30056 8.93924 6.33243C8.9342 6.3369 8.92679 6.34406 8.91986 6.35386C8.91366 6.36262 8.90183 6.38185 8.90019 6.40913C8.89821 6.44208 8.91194 6.47136 8.93294 6.49092C8.95026 6.50705 8.96872 6.51328 8.9777 6.5158C8.99592 6.5209 9.01311 6.52077 9.02174 6.52053C9.03257 6.52022 9.04394 6.51912 9.05489 6.51772C9.09754 6.51226 9.16107 6.49866 9.23493 6.48087C9.3848 6.44476 9.59441 6.38706 9.80614 6.32657C10.0183 6.26596 10.2339 6.20214 10.3965 6.15349C10.4778 6.12916 10.5458 6.10861 10.5936 6.09414L10.6491 6.07728L10.6637 6.0728L10.6663 6.07203L10.6723 6.07055L10.6977 6.06459C10.72 6.05951 10.7524 6.05241 10.7925 6.04451C10.8729 6.02867 10.9833 6.00973 11.1039 5.99714C11.225 5.9845 11.3539 5.97852 11.4721 5.98764C11.5919 5.99688 11.6914 6.02102 11.7602 6.0617C11.7783 6.07242 11.7971 6.09348 11.8122 6.13546C11.8275 6.17816 11.8365 6.23632 11.8378 6.30972C11.8405 6.45657 11.8124 6.64329 11.7687 6.84136C11.7058 7.12684 11.6151 7.41726 11.5494 7.62779C11.5235 7.71075 11.5015 7.7813 11.4866 7.83425C11.4391 8.00267 11.3257 8.25496 11.2209 8.47057C11.1691 8.57717 11.1203 8.67282 11.0845 8.74182C11.0667 8.77631 11.052 8.80409 11.0419 8.82322L11.0302 8.84516L11.0272 8.85079L11.0264 8.85219L11.0263 8.85252L11.0262 8.8526L11.0262 8.85261L11.0262 8.85261L11.0257 8.85358L11.1142 8.90008L11.0257 8.85359L11.0257 8.85363L11.0256 8.85379L11.0253 8.8544L11.024 8.85681L11.019 8.86627L11.0001 8.90236L10.9314 9.03276C10.8742 9.14158 10.7966 9.28883 10.7153 9.44255C10.5524 9.75087 10.376 10.0828 10.3183 10.1852C10.293 10.23 10.2559 10.2876 10.2113 10.3567C10.2075 10.3627 10.2036 10.3688 10.1996 10.3749C10.1508 10.4508 10.0954 10.5374 10.0436 10.6272C9.99186 10.7168 9.94237 10.8117 9.90562 10.9049C9.86927 10.997 9.84282 11.0936 9.84278 11.1852C9.84275 11.2583 9.84502 11.3271 9.85896 11.3831C9.87391 11.4433 9.90607 11.503 9.97439 11.5354C10.0342 11.5637 10.1044 11.5619 10.1726 11.5521C10.2437 11.5418 10.3318 11.5196 10.4387 11.4891C10.5076 11.4696 10.6006 11.4181 10.7028 11.3533C10.8082 11.2865 10.9336 11.1986 11.0705 11.0977C11.3445 10.8959 11.6686 10.6388 11.9785 10.3863C12.2886 10.1337 12.5852 9.88494 12.8042 9.69941C12.8931 9.62413 12.9692 9.55922 13.0283 9.50866C13.0349 9.55074 13.0426 9.5991 13.0512 9.65244C13.0825 9.8462 13.1259 10.1061 13.1744 10.37C13.2229 10.6335 13.2768 10.9026 13.3291 11.1143C13.3552 11.2199 13.3814 11.3134 13.407 11.3856C13.4197 11.4216 13.4331 11.4545 13.4471 11.4818C13.4595 11.5058 13.4787 11.5384 13.5078 11.5604C13.5064 11.5593 13.5906 11.6466 13.726 11.6871C13.8679 11.7296 14.0601 11.7237 14.2996 11.5868L14.2997 11.587L14.3055 11.5832L14.25 11.5L14.3055 11.5832L14.3056 11.5831L14.3059 11.5829L14.3072 11.5821L14.3122 11.5787L14.3319 11.5656L14.4071 11.5159C14.472 11.4731 14.5651 11.412 14.6775 11.339C14.9024 11.193 15.2044 10.9995 15.5136 10.8094C15.8232 10.6191 16.1383 10.4331 16.3898 10.3014C16.5158 10.2354 16.6233 10.1845 16.7049 10.1534C16.7267 10.1451 16.7457 10.1385 16.7621 10.1336C16.7469 10.179 16.7191 10.2403 16.6792 10.3157C16.5865 10.4914 16.4425 10.7181 16.2956 10.9461C16.2773 10.9745 16.2589 11.0029 16.2406 11.0313C16.1136 11.228 15.9894 11.4203 15.9047 11.5691C15.857 11.6529 15.8175 11.7302 15.7984 11.7895C15.7899 11.816 15.7794 11.8563 15.7875 11.8961C15.7922 11.9193 15.8044 11.9478 15.8316 11.9694C15.8584 11.9906 15.8883 11.9961 15.911 11.9961C16.0272 11.9962 17.7537 12.0221 19.4531 12.0481L21.774 12.0838L22.5336 12.0955L22.746 12.0988L22.8018 12.0997L22.8162 12.0999L22.8198 12.1L22.8207 12.1L22.8209 12.1L22.8226 12ZM22.8226 12L22.8442 12.0976L22.8327 12.1002L22.821 12.1L22.8226 12Z" stroke="white" stroke-width="0.2"/>
<path id="Vector" d="M2.77225 10.687C1.96874 9.74902 2.15434 8.56683 2.67504 7.4261C3.07016 6.56052 3.64575 5.7453 4.0927 5.11227C4.23478 4.91104 4.36386 4.72822 4.47001 4.56805C4.52472 4.48549 4.56497 4.42042 4.5912 4.37204C4.60418 4.3481 4.61509 4.32576 4.62255 4.30601C4.62627 4.29617 4.63003 4.28465 4.63241 4.2724C4.63445 4.26188 4.63745 4.24142 4.63165 4.21804C4.62453 4.1893 4.60343 4.15668 4.56363 4.14257C4.53215 4.1314 4.50466 4.13793 4.49297 4.14138C4.46829 4.14866 4.4463 4.16329 4.43199 4.17352C4.3994 4.19684 4.35767 4.23394 4.31033 4.27943C4.11925 4.46305 3.77846 4.8405 3.39234 5.29004C2.6205 6.18864 1.6494 7.39645 1.30482 7.96071C0.620428 9.08141 0.210832 10.2586 0.372763 11.194C0.454505 11.6661 0.682025 12.076 1.08951 12.3801C1.49486 12.6826 2.07062 12.8747 2.84064 12.929C4.38453 13.038 6.10061 12.3883 7.2211 11.7868C7.78006 11.4867 8.20351 11.1919 8.38598 10.9999C8.43067 10.9529 8.47021 10.9027 8.48877 10.8532C8.49831 10.8277 8.50626 10.7921 8.49583 10.7536C8.48424 10.7109 8.45478 10.6819 8.42204 10.6656C8.39239 10.6509 8.36015 10.6464 8.33202 10.6455C8.30278 10.6446 8.27052 10.6474 8.23621 10.6529C8.16761 10.6638 8.08136 10.6868 7.97742 10.7218C7.82154 10.7742 7.66045 10.8306 7.49532 10.8885C6.79239 11.1348 6.01621 11.4067 5.25708 11.5026C4.32549 11.6202 3.44246 11.4694 2.77225 10.687Z" stroke="white" stroke-width="0.2"/>
<path id="Vector_2" d="M9.0155 2.8476C8.94042 2.60592 8.76322 2.38789 8.42891 2.22611C8.13229 2.08256 7.77231 2.09606 7.39285 2.20447C7.01452 2.31256 6.62992 2.51139 6.29526 2.71984C5.96131 2.92786 5.68117 3.14287 5.51216 3.28014C5.42776 3.34869 5.37136 3.39762 5.35015 3.41627L5.34146 3.42394L5.34137 3.42402L5.34101 3.42435L5.34093 3.42442L5.34041 3.42489C5.33954 3.42565 5.1989 3.41614 5.20666 3.2762L5.20719 3.27571L5.20746 3.27547L5.20763 3.27532L5.20763 3.27532L9.0155 2.8476ZM9.0155 2.8476C9.09168 3.09282 9.06692 3.37601 8.96973 3.67185M9.0155 2.8476L8.96973 3.67185M8.96973 3.67185C8.77478 4.26526 8.30008 4.87332 7.87879 5.2384M8.96973 3.67185L7.87879 5.2384M7.87879 5.2384C7.77112 5.33171 7.70452 5.39371 7.67406 5.42617M7.87879 5.2384L7.67406 5.42617M7.67406 5.42617C7.6672 5.43347 7.65786 5.44377 7.6507 5.45445M7.67406 5.42617L7.6507 5.45445M7.6507 5.45445C7.64866 5.45748 7.64548 5.46248 7.64242 5.46885M7.6507 5.45445L7.64242 5.46885M7.64242 5.46885C7.64026 5.47332 7.63344 5.48778 7.63223 5.50759M7.64242 5.46885L7.63223 5.50759M7.63223 5.50759C7.63077 5.53159 7.63861 5.57641 7.68332 5.60157M7.63223 5.50759L7.68332 5.60157M7.68332 5.60157C7.71548 5.61967 7.74573 5.61394 7.75207 5.61274M7.68332 5.60157L7.75207 5.61274M7.75207 5.61274L7.75207 5.61274M7.75207 5.61274L7.75207 5.61274M7.75207 5.61274C7.76919 5.6095 7.78233 5.60228 7.78555 5.60051M7.75207 5.61274L7.78555 5.60051M7.78555 5.60051L7.78586 5.60034M7.78555 5.60051L7.78586 5.60034M7.78586 5.60034C7.79141 5.59731 7.79657 5.59402 7.80078 5.59122M7.78586 5.60034L7.80078 5.59122M7.80078 5.59122C7.80938 5.58548 7.81919 5.57826 7.82959 5.57025M7.80078 5.59122L7.82959 5.57025M7.82959 5.57025C7.91131 5.50724 8.10465 5.33634 8.34372 5.08821M7.82959 5.57025L8.34372 5.08821M8.34372 5.08821C8.8215 4.59231 9.49759 3.77187 9.83588 2.86113M8.34372 5.08821L9.83588 2.86113M9.83588 2.86113C9.9519 2.54879 10.0328 2.26738 10.0619 2.02564M9.83588 2.86113L10.0619 2.02564M10.0619 2.02564C10.0909 1.78516 10.0702 1.57074 9.96751 1.40404M10.0619 2.02564L9.96751 1.40404M9.96751 1.40404C9.8623 1.2332 9.68313 1.13152 9.43822 1.09321M9.96751 1.40404L9.43822 1.09321M9.43822 1.09321C9.19588 1.0553 8.88085 1.07764 8.48495 1.15971M9.43822 1.09321L8.48495 1.15971M8.48495 1.15971C7.07097 1.45286 5.97806 2.52514 5.44291 3.05018M8.48495 1.15971L5.44291 3.05018M5.44291 3.05018C5.37331 3.11846 5.31315 3.17749 5.26294 3.22434M5.44291 3.05018L5.26294 3.22434M5.26294 3.22434C5.23535 3.25009 5.21843 3.26554 5.21127 3.27203M5.26294 3.22434L5.21127 3.27203M5.21127 3.27203L5.20774 3.27522L5.21127 3.27203Z" stroke="white" stroke-width="0.2"/>
</g>
</svg>
