<svg width="363" height="52" viewBox="0 0 363 52" fill="none" xmlns="http://www.w3.org/2000/svg">
<g id="lg-charlesM">
<path id="Vector 68" d="M286.823 1.94866C281.563 3.57727 271.919 10.2188 271.042 11.0342C270.165 11.8497 283.271 7.65008 283.271 7.65008C283.271 7.65008 289.408 6.02019 292.039 7.65008C294.669 9.27997 291.081 19.6441 290.33 22.4367C289.578 25.2293 286.823 30.5814 286.823 30.5814C286.823 30.5814 282.395 39.4142 281.518 41.0431C280.641 42.672 278.057 46.1896 278.056 48.4996C278.055 50.8095 278.373 51.0793 281.563 50.1285C284.752 49.1777 301.683 33.8392 301.683 33.8392C301.683 33.8392 303.968 49.8491 305.189 50.8161C305.38 50.9678 307.017 52.9281 310.292 50.9678C310.292 50.9678 327.983 38.5982 329.737 39.4136C331.49 40.229 322.913 51.9986 324.667 51.9996C326.42 52.0005 363 51.9996 363 51.9996L355.333 50.9678L334.889 49.1107C334.889 49.1107 338.504 41.0431 338.504 38.5992C338.504 36.1552 336.796 34.6527 335.043 33.8392C333.289 33.0257 329.783 33.0248 326.276 33.8392C322.769 34.6537 312.203 43.4869 311.326 41.857C310.449 40.2271 307.82 27.1972 311.326 20.6815C314.833 14.1658 303.436 23.9394 303.436 23.9394C303.436 23.9394 298.176 28.138 296.422 28.9524C294.669 29.7669 298.829 28.1047 299.974 19.8667C301.118 11.6288 300.624 9.17316 299.974 5.20669C299.324 1.24023 298.175 1.13388 297.298 0.319413C296.422 -0.495051 292.083 0.320042 286.823 1.94866Z" fill="#00ffc2"/>
<path id="Charles" d="M26.5705 42.72C26.5705 41.04 26.7625 39.66 27.1465 38.58C27.5305 37.476 28.1785 36.612 29.0905 35.988C30.0025 35.364 31.2145 34.92 32.7265 34.656C34.2625 34.392 36.1585 34.26 38.4145 34.26C39.3745 34.26 40.2745 34.296 41.1145 34.368C41.9785 34.416 42.8785 34.512 43.8145 34.656C44.8225 34.776 45.4825 35.016 45.7945 35.376C46.1065 35.736 46.2625 36.228 46.2625 36.852V38.688C45.5665 38.424 44.7505 38.208 43.8145 38.04C42.9025 37.872 41.9905 37.752 41.0785 37.68C40.1665 37.584 39.3625 37.536 38.6665 37.536C37.2505 37.536 36.0865 37.656 35.1745 37.896C34.2865 38.136 33.6385 38.628 33.2305 39.372C32.8225 40.116 32.6185 41.244 32.6185 42.756C32.6185 44.196 32.8225 45.288 33.2305 46.032C33.6385 46.776 34.3225 47.28 35.2825 47.544C36.2425 47.808 37.5145 47.94 39.0985 47.94C39.7705 47.94 40.4785 47.904 41.2225 47.832C41.9905 47.736 42.7825 47.616 43.5985 47.472C44.4385 47.328 45.3265 47.148 46.2625 46.932V48.624C46.2625 49.2 46.0945 49.68 45.7585 50.064C45.4225 50.424 44.7385 50.676 43.7065 50.82C42.7945 50.964 41.8825 51.06 40.9705 51.108C40.0825 51.156 39.1585 51.18 38.1985 51.18C35.9185 51.18 34.0225 51.06 32.5105 50.82C31.0225 50.556 29.8345 50.112 28.9465 49.488C28.0825 48.864 27.4705 48.012 27.1105 46.932C26.7505 45.828 26.5705 44.424 26.5705 42.72ZM64.5296 51V36.096C64.5296 35.376 64.6736 34.92 64.9616 34.728C65.2736 34.536 65.7896 34.44 66.5096 34.44H70.4336V40.884H78.5696V34.44H84.4736V49.128C84.4736 49.872 84.3536 50.376 84.1136 50.64C83.8736 50.88 83.3216 51 82.4576 51H78.5696V43.944H70.4336V51H64.5296ZM101.787 51L107.511 37.248C107.895 36.312 108.447 35.592 109.167 35.088C109.887 34.56 111.015 34.296 112.551 34.296C113.823 34.296 114.855 34.536 115.647 35.016C116.439 35.496 117.039 36.24 117.447 37.248L123.207 51H116.799L115.251 47.292H107.763L106.323 51H101.787ZM108.699 45.024H114.171L112.227 39.984C112.155 39.792 112.071 39.624 111.975 39.48C111.879 39.312 111.711 39.228 111.471 39.228C111.207 39.228 111.015 39.312 110.895 39.48C110.799 39.624 110.715 39.792 110.643 39.984L108.699 45.024ZM151.264 45.42C151.264 45.42 151.024 45.42 150.544 45.42C150.088 45.42 149.5 45.432 148.78 45.456C148.06 45.456 147.316 45.456 146.548 45.456V51H140.644V36.636C140.644 35.94 140.8 35.4 141.112 35.016C141.424 34.632 142.06 34.44 143.02 34.44C143.38 34.44 143.92 34.44 144.64 34.44C145.36 34.416 146.188 34.404 147.124 34.404C148.06 34.404 149.02 34.404 150.004 34.404C151.012 34.38 151.972 34.38 152.884 34.404C153.796 34.404 154.588 34.416 155.26 34.44C155.956 34.44 156.46 34.452 156.772 34.476C158.068 34.596 159.04 34.992 159.688 35.664C160.336 36.312 160.66 37.38 160.66 38.868C160.66 40.212 160.552 41.196 160.336 41.82C160.144 42.42 159.82 42.888 159.364 43.224C159.196 43.344 158.968 43.44 158.68 43.512C158.392 43.584 158.068 43.62 157.708 43.62V43.764C157.876 43.764 158.056 43.764 158.248 43.764C158.464 43.764 158.644 43.776 158.788 43.8C159.7 43.968 160.24 44.316 160.408 44.844C160.6 45.372 160.696 45.924 160.696 46.5V49.668C160.696 50.124 160.744 50.46 160.84 50.676C160.936 50.868 160.996 50.976 161.02 51H156.628C156.004 51 155.512 50.904 155.152 50.712C154.816 50.52 154.648 50.112 154.648 49.488V47.112C154.648 46.368 154.48 45.9 154.144 45.708C153.832 45.516 153.268 45.42 152.452 45.42H151.264ZM146.548 42.612C146.812 42.612 147.208 42.624 147.736 42.648C148.288 42.648 148.888 42.648 149.536 42.648C150.184 42.648 150.772 42.648 151.3 42.648C151.852 42.648 152.248 42.648 152.488 42.648C153.064 42.648 153.568 42.468 154 42.108C154.456 41.724 154.684 41.016 154.684 39.984C154.684 39.264 154.552 38.7 154.288 38.292C154.048 37.884 153.64 37.656 153.064 37.608C152.728 37.536 152.272 37.5 151.696 37.5C151.144 37.5 150.556 37.5 149.932 37.5C149.332 37.5 148.78 37.512 148.276 37.536C147.772 37.536 147.4 37.536 147.16 37.536C147.112 37.536 146.992 37.572 146.8 37.644C146.632 37.716 146.548 37.896 146.548 38.184V42.612ZM185.403 34.44V47.904H196.023V51H179.499V36.384C179.499 35.952 179.523 35.592 179.571 35.304C179.643 35.016 179.811 34.8 180.075 34.656C180.339 34.512 180.795 34.44 181.443 34.44H185.403ZM213.603 51V36.312C213.603 35.544 213.735 35.04 213.999 34.8C214.263 34.56 214.779 34.44 215.547 34.44H232.179V37.536H219.507V40.992H231.027V44.052H219.507V47.904H232.179V51H213.603ZM249.836 47.076C250.436 47.34 251.204 47.544 252.14 47.688C253.076 47.808 254.048 47.88 255.056 47.904C256.064 47.928 256.952 47.94 257.72 47.94C258.008 47.94 258.368 47.94 258.8 47.94C259.256 47.94 259.628 47.928 259.916 47.904C260.564 47.904 261.116 47.844 261.572 47.724C262.028 47.58 262.364 47.364 262.58 47.076C262.82 46.788 262.94 46.38 262.94 45.852C262.94 45.228 262.76 44.82 262.4 44.628C262.04 44.412 261.488 44.304 260.744 44.304C260.48 44.304 260.168 44.304 259.808 44.304C259.472 44.304 259.04 44.304 258.512 44.304C257.984 44.304 257.3 44.304 256.46 44.304C255.692 44.304 254.912 44.268 254.12 44.196C253.352 44.124 252.656 43.956 252.032 43.692C251.408 43.404 250.904 42.96 250.52 42.36C250.16 41.736 249.98 40.884 249.98 39.804C249.98 38.508 250.196 37.5 250.628 36.78C251.084 36.036 251.708 35.484 252.5 35.124C253.316 34.764 254.276 34.536 255.38 34.44C256.508 34.344 257.744 34.296 259.088 34.296C259.904 34.296 260.78 34.308 261.716 34.332C262.676 34.356 263.564 34.392 264.38 34.44C265.22 34.488 265.868 34.572 266.324 34.692C267.14 34.74 267.764 34.956 268.196 35.34C268.652 35.724 268.88 36.204 268.88 36.78C268.88 36.876 268.88 37.044 268.88 37.284C268.88 37.5 268.88 37.716 268.88 37.932C268.88 38.148 268.88 38.268 268.88 38.292C268.688 38.124 268.328 37.992 267.8 37.896C267.296 37.776 266.696 37.692 266 37.644C265.328 37.596 264.656 37.56 263.984 37.536C263.336 37.512 262.76 37.5 262.256 37.5H259.016C258.368 37.5 257.816 37.56 257.36 37.68C256.928 37.776 256.604 37.956 256.388 38.22C256.172 38.484 256.064 38.856 256.064 39.336C256.064 39.72 256.136 40.032 256.28 40.272C256.424 40.488 256.652 40.644 256.964 40.74C257.276 40.836 257.684 40.884 258.188 40.884C259.652 40.884 260.828 40.884 261.716 40.884C262.604 40.884 263.18 40.884 263.444 40.884C264.596 40.884 265.604 40.98 266.468 41.172C267.332 41.364 268.004 41.796 268.484 42.468C268.964 43.14 269.204 44.172 269.204 45.564C269.204 46.884 268.94 47.94 268.412 48.732C267.884 49.5 267.152 50.064 266.216 50.424C265.304 50.784 264.236 51 263.012 51.072C261.86 51.144 260.768 51.18 259.736 51.18C258.704 51.18 257.612 51.18 256.46 51.18C255.5 51.156 254.612 51.108 253.796 51.036C253.004 50.988 252.308 50.892 251.708 50.748C251.108 50.58 250.64 50.364 250.304 50.1C249.992 49.812 249.836 49.44 249.836 48.984V47.076Z" fill="#00ffc2"/>
</g>
</svg>
