<svg width="45" height="21" viewBox="0 0 45 21" fill="none" xmlns="http://www.w3.org/2000/svg">
<g id="new-cm-logo">
<g id="Group">
<path id="Vector 67" d="M22 6V16H26V10L29.7783 15.1107H32.2217L36 10V16H40V6H35.8869L31 12L26 6H22Z" fill="#5C8B41"/>
</g>
<g id="Group 36">
<path id="Ellipse 93" d="M20 0C18.4241 -1.6443e-08 16.8637 0.27159 15.4078 0.799265C13.9519 1.32694 12.629 2.10036 11.5147 3.07538C10.4004 4.05039 9.5165 5.20791 8.91345 6.48182C8.31039 7.75574 8 9.12112 8 10.5C8 11.8789 8.31039 13.2443 8.91345 14.5182C9.5165 15.7921 10.4004 16.9496 11.5147 17.9246C12.629 18.8996 13.9519 19.6731 15.4078 20.2007C16.8637 20.7284 18.4241 21 20 21L20 17.0036C19.0239 17.0036 18.0574 16.8354 17.1556 16.5085C16.2539 16.1817 15.4345 15.7027 14.7443 15.0987C14.0541 14.4948 13.5066 13.7779 13.1331 12.9888C12.7596 12.1998 12.5673 11.3541 12.5673 10.5C12.5673 9.64594 12.7596 8.80023 13.1331 8.01118C13.5066 7.22213 14.0541 6.50518 14.7443 5.90126C15.4345 5.29735 16.2539 4.8183 17.1556 4.49146C18.0574 4.16462 19.0239 3.9964 20 3.9964L20 0Z" fill="white"/>
<rect id="Rectangle 92" x="20" width="11" height="4" fill="white"/>
<rect id="Rectangle 93" x="20" y="17" width="11" height="4" fill="white"/>
</g>
<rect id="Rectangle 96" y="9" width="45" height="3" fill="transparent"/>
</g>
</svg>
