<svg width="23" height="13" viewBox="0 0 23 13" fill="none" xmlns="http://www.w3.org/2000/svg">
<g id="Group 97">
<path id="Vector 1" d="M11.1142 4.24851C10.4114 4.45621 9.12277 5.30322 9.00563 5.40721C8.88848 5.5112 10.6396 4.97563 10.6396 4.97563C10.6396 4.97563 11.4596 4.76776 11.8111 4.97563C12.1625 5.18349 11.6832 6.50525 11.5828 6.86139C11.4824 7.21753 11.1142 7.90008 11.1142 7.90008C11.1142 7.90008 10.5225 9.02655 10.4054 9.23428C10.2882 9.44202 9.94292 9.89063 9.94278 10.1852C9.94264 10.4798 9.98519 10.5142 10.4114 10.393C10.8375 10.2717 13.0997 8.31556 13.0997 8.31556C13.0997 8.31556 13.4051 10.3573 13.5682 10.4807C13.5938 10.5 13.8125 10.75 14.25 10.5C14.25 10.5 16.6139 8.92248 16.8482 9.02647C17.0825 9.13047 15.6768 10.896 15.911 10.8961C16.1453 10.8963 22.8226 11 22.8226 11C22.8226 11 23.2911 10.8961 22.7054 10.7923C22.1197 10.6884 21.2997 10.5845 20.5968 10.4807C19.8939 10.3768 17.5511 10.169 17.5511 10.169C17.5511 10.169 18.0196 9.23428 18.0196 8.92261C18.0196 8.61093 17.7914 8.41931 17.5571 8.31556C17.3229 8.21182 16.8543 8.21169 16.3857 8.31556C15.9171 8.41943 14.5053 9.54595 14.3882 9.33808C14.271 9.13022 13.9197 7.4685 14.3883 6.63754C14.8568 5.80658 13.334 7.05302 13.334 7.05302C13.334 7.05302 12.6311 7.58848 12.3968 7.69235C12.1625 7.79621 12.7185 7.58423 12.8714 6.53363C13.0243 5.48304 12.9582 5.16987 12.8714 4.66402C12.7845 4.15817 12.631 4.1446 12.5139 4.04074C12.3967 3.93687 11.8171 4.04082 11.1142 4.24851Z" fill="white"/>
<path id="Vector" d="M2.6963 9.75205C1.00989 7.7834 3.51999 4.82053 4.38665 3.51281C5.25331 2.20509 2.06961 5.90023 1.39016 7.01283C0.0285656 9.24247 -0.184388 11.6152 2.84768 11.8293C5.87975 12.0433 9.63141 9.27113 8.00929 9.81654C6.38718 10.362 4.09658 11.3867 2.6963 9.75205Z" fill="white"/>
<path id="Vector_2" d="M8.47247 1.13609C9.89441 1.82422 8.80596 3.56726 7.94428 4.31398C7.0826 5.06069 9.07981 3.60942 9.74214 1.82631C10.2017 0.589149 10.0688 -0.066527 8.50526 0.257631C6.94171 0.581788 5.77773 1.88073 5.33117 2.29745C4.88461 2.71418 7.16056 0.501212 8.47247 1.13609Z" fill="white"/>
</g>
</svg>
