<svg width="79" height="15" viewBox="0 0 79 15" fill="none" xmlns="http://www.w3.org/2000/svg">
<g id="charlesM">
<path id="Vector 69" d="M62.4398 0.412216C61.2963 0.75673 59.1997 2.16167 59.0092 2.33417C58.8186 2.50666 61.6675 1.61829 61.6675 1.61829C61.6675 1.61829 63.0018 1.2735 63.5736 1.61829C64.1454 1.96307 63.3655 4.15549 63.2022 4.74623C63.0388 5.33697 62.4398 6.46913 62.4398 6.46913C62.4398 6.46913 61.4771 8.33761 61.2865 8.68219C61.0959 9.02677 60.5341 9.77088 60.5339 10.2595C60.5337 10.7482 60.6029 10.8052 61.2963 10.6041C61.9896 10.403 65.6701 7.1583 65.6701 7.1583C65.6701 7.1583 66.167 10.545 66.4323 10.7496C66.474 10.7817 66.8299 11.1963 67.5417 10.7817C67.5417 10.7817 71.3877 8.165 71.7689 8.3375C72.1501 8.50999 70.2855 10.9997 70.6667 10.9999C71.0479 11.0001 79 10.9999 79 10.9999L77.3333 10.7817L72.8889 10.3888C72.8889 10.3888 73.6748 8.68219 73.6748 8.16521C73.6748 7.64822 73.3035 7.33038 72.9223 7.1583C72.5412 6.98621 71.7788 6.98601 71.0164 7.1583C70.2541 7.33059 67.9571 9.19915 67.7665 8.85437C67.5759 8.50958 67.0043 5.75326 67.7666 4.37493C68.529 2.99661 66.0513 5.0641 66.0513 5.0641C66.0513 5.0641 64.9078 5.95226 64.5266 6.12455C64.1454 6.29684 65.0499 5.94522 65.2987 4.20258C65.5475 2.45994 65.44 1.94048 65.2987 1.10142C65.1574 0.262355 64.9076 0.239859 64.717 0.0675682C64.5264 -0.104722 63.5834 0.0677011 62.4398 0.412216Z" fill="#53C1DE"/>
<path id="Charles" d="M2.76957 8.7C2.76957 8.23333 2.8229 7.85 2.92957 7.55C3.03624 7.24333 3.21624 7.00333 3.46957 6.83C3.7229 6.65667 4.05957 6.53333 4.47957 6.46C4.90624 6.38667 5.4329 6.35 6.05957 6.35C6.32624 6.35 6.57624 6.36 6.80957 6.38C7.04957 6.39333 7.29957 6.42 7.55957 6.46C7.83957 6.49333 8.0229 6.56 8.10957 6.66C8.19624 6.76 8.23957 6.89667 8.23957 7.07V7.58C8.04624 7.50667 7.81957 7.44667 7.55957 7.4C7.30624 7.35333 7.0529 7.32 6.79957 7.3C6.54624 7.27333 6.3229 7.26 6.12957 7.26C5.73624 7.26 5.4129 7.29333 5.15957 7.36C4.9129 7.42667 4.7329 7.56333 4.61957 7.77C4.50624 7.97667 4.44957 8.29 4.44957 8.71C4.44957 9.11 4.50624 9.41333 4.61957 9.62C4.7329 9.82667 4.9229 9.96667 5.18957 10.04C5.45624 10.1133 5.80957 10.15 6.24957 10.15C6.43624 10.15 6.6329 10.14 6.83957 10.12C7.0529 10.0933 7.2729 10.06 7.49957 10.02C7.7329 9.98 7.97957 9.93 8.23957 9.87V10.34C8.23957 10.5 8.1929 10.6333 8.09957 10.74C8.00624 10.84 7.81624 10.91 7.52957 10.95C7.27624 10.99 7.0229 11.0167 6.76957 11.03C6.5229 11.0433 6.26624 11.05 5.99957 11.05C5.36624 11.05 4.83957 11.0167 4.41957 10.95C4.00624 10.8767 3.67624 10.7533 3.42957 10.58C3.18957 10.4067 3.01957 10.17 2.91957 9.87C2.81957 9.56333 2.76957 9.17333 2.76957 8.7ZM11.3138 11V6.86C11.3138 6.66 11.3538 6.53333 11.4338 6.48C11.5205 6.42667 11.6638 6.4 11.8638 6.4H12.9538V8.19H15.2138V6.4H16.8538V10.48C16.8538 10.6867 16.8205 10.8267 16.7538 10.9C16.6871 10.9667 16.5338 11 16.2938 11H15.2138V9.04H12.9538V11H11.3138ZM19.663 11L21.253 7.18C21.3597 6.92 21.513 6.72 21.713 6.58C21.913 6.43333 22.2263 6.36 22.653 6.36C23.0063 6.36 23.293 6.42667 23.513 6.56C23.733 6.69333 23.8997 6.9 24.013 7.18L25.613 11H23.833L23.403 9.97H21.323L20.923 11H19.663ZM21.583 9.34H23.103L22.563 7.94C22.543 7.88667 22.5197 7.84 22.493 7.8C22.4663 7.75333 22.4197 7.73 22.353 7.73C22.2797 7.73 22.2263 7.75333 22.193 7.8C22.1663 7.84 22.143 7.88667 22.123 7.94L21.583 9.34ZM31.4068 9.45C31.4068 9.45 31.3401 9.45 31.2068 9.45C31.0801 9.45 30.9168 9.45333 30.7168 9.46C30.5168 9.46 30.3101 9.46 30.0968 9.46V11H28.4568V7.01C28.4568 6.81667 28.5001 6.66667 28.5868 6.56C28.6734 6.45333 28.8501 6.4 29.1168 6.4C29.2168 6.4 29.3668 6.4 29.5668 6.4C29.7668 6.39333 29.9968 6.39 30.2568 6.39C30.5168 6.39 30.7834 6.39 31.0568 6.39C31.3368 6.38333 31.6034 6.38333 31.8568 6.39C32.1101 6.39 32.3301 6.39333 32.5168 6.4C32.7101 6.4 32.8501 6.40333 32.9368 6.41C33.2968 6.44333 33.5668 6.55333 33.7468 6.74C33.9268 6.92 34.0168 7.21667 34.0168 7.63C34.0168 8.00333 33.9868 8.27667 33.9268 8.45C33.8734 8.61667 33.7834 8.74667 33.6568 8.84C33.6101 8.87333 33.5468 8.9 33.4668 8.92C33.3868 8.94 33.2968 8.95 33.1968 8.95V8.99C33.2434 8.99 33.2934 8.99 33.3468 8.99C33.4068 8.99 33.4568 8.99333 33.4968 9C33.7501 9.04667 33.9001 9.14333 33.9468 9.29C34.0001 9.43667 34.0268 9.59 34.0268 9.75V10.63C34.0268 10.7567 34.0401 10.85 34.0668 10.91C34.0934 10.9633 34.1101 10.9933 34.1168 11H32.8968C32.7234 11 32.5868 10.9733 32.4868 10.92C32.3934 10.8667 32.3468 10.7533 32.3468 10.58V9.92C32.3468 9.71333 32.3001 9.58333 32.2068 9.53C32.1201 9.47667 31.9634 9.45 31.7368 9.45H31.4068ZM30.0968 8.67C30.1701 8.67 30.2801 8.67333 30.4268 8.68C30.5801 8.68 30.7468 8.68 30.9268 8.68C31.1068 8.68 31.2701 8.68 31.4168 8.68C31.5701 8.68 31.6801 8.68 31.7468 8.68C31.9068 8.68 32.0468 8.63 32.1668 8.53C32.2934 8.42333 32.3568 8.22667 32.3568 7.94C32.3568 7.74 32.3201 7.58333 32.2468 7.47C32.1801 7.35667 32.0668 7.29333 31.9068 7.28C31.8134 7.26 31.6868 7.25 31.5268 7.25C31.3734 7.25 31.2101 7.25 31.0368 7.25C30.8701 7.25 30.7168 7.25333 30.5768 7.26C30.4368 7.26 30.3334 7.26 30.2668 7.26C30.2534 7.26 30.2201 7.27 30.1668 7.29C30.1201 7.31 30.0968 7.36 30.0968 7.44V8.67ZM38.8897 6.4V10.14H41.8397V11H37.2497V6.94C37.2497 6.82 37.2564 6.72 37.2697 6.64C37.2897 6.56 37.3364 6.5 37.4097 6.46C37.4831 6.42 37.6097 6.4 37.7897 6.4H38.8897ZM44.7232 11V6.92C44.7232 6.70667 44.7598 6.56667 44.8332 6.5C44.9065 6.43333 45.0498 6.4 45.2632 6.4H49.8832V7.26H46.3632V8.22H49.5632V9.07H46.3632V10.14H49.8832V11H44.7232ZM52.7879 9.91C52.9545 9.98333 53.1679 10.04 53.4279 10.08C53.6879 10.1133 53.9579 10.1333 54.2379 10.14C54.5179 10.1467 54.7645 10.15 54.9779 10.15C55.0579 10.15 55.1579 10.15 55.2779 10.15C55.4045 10.15 55.5079 10.1467 55.5879 10.14C55.7679 10.14 55.9212 10.1233 56.0479 10.09C56.1745 10.05 56.2679 9.99 56.3279 9.91C56.3945 9.83 56.4279 9.71667 56.4279 9.57C56.4279 9.39667 56.3779 9.28333 56.2779 9.23C56.1779 9.17 56.0245 9.14 55.8179 9.14C55.7445 9.14 55.6579 9.14 55.5579 9.14C55.4645 9.14 55.3445 9.14 55.1979 9.14C55.0512 9.14 54.8612 9.14 54.6279 9.14C54.4145 9.14 54.1979 9.13 53.9779 9.11C53.7645 9.09 53.5712 9.04333 53.3979 8.97C53.2245 8.89 53.0845 8.76667 52.9779 8.6C52.8779 8.42667 52.8279 8.19 52.8279 7.89C52.8279 7.53 52.8879 7.25 53.0079 7.05C53.1345 6.84333 53.3079 6.69 53.5279 6.59C53.7545 6.49 54.0212 6.42667 54.3279 6.4C54.6412 6.37333 54.9845 6.36 55.3579 6.36C55.5845 6.36 55.8279 6.36333 56.0879 6.37C56.3545 6.37667 56.6012 6.38667 56.8279 6.4C57.0612 6.41333 57.2412 6.43667 57.3679 6.47C57.5945 6.48333 57.7679 6.54333 57.8879 6.65C58.0145 6.75667 58.0779 6.89 58.0779 7.05C58.0779 7.07667 58.0779 7.12333 58.0779 7.19C58.0779 7.25 58.0779 7.31 58.0779 7.37C58.0779 7.43 58.0779 7.46333 58.0779 7.47C58.0245 7.42333 57.9245 7.38667 57.7779 7.36C57.6379 7.32667 57.4712 7.30333 57.2779 7.29C57.0912 7.27667 56.9045 7.26667 56.7179 7.26C56.5379 7.25333 56.3779 7.25 56.2379 7.25H55.3379C55.1579 7.25 55.0045 7.26667 54.8779 7.3C54.7579 7.32667 54.6679 7.37667 54.6079 7.45C54.5479 7.52333 54.5179 7.62667 54.5179 7.76C54.5179 7.86667 54.5379 7.95333 54.5779 8.02C54.6179 8.08 54.6812 8.12333 54.7679 8.15C54.8545 8.17667 54.9679 8.19 55.1079 8.19C55.5145 8.19 55.8412 8.19 56.0879 8.19C56.3345 8.19 56.4945 8.19 56.5679 8.19C56.8879 8.19 57.1679 8.21667 57.4079 8.27C57.6479 8.32333 57.8345 8.44333 57.9679 8.63C58.1012 8.81667 58.1679 9.10333 58.1679 9.49C58.1679 9.85667 58.0945 10.15 57.9479 10.37C57.8012 10.5833 57.5979 10.74 57.3379 10.84C57.0845 10.94 56.7879 11 56.4479 11.02C56.1279 11.04 55.8245 11.05 55.5379 11.05C55.2512 11.05 54.9479 11.05 54.6279 11.05C54.3612 11.0433 54.1145 11.03 53.8879 11.01C53.6679 10.9967 53.4745 10.97 53.3079 10.93C53.1412 10.8833 53.0112 10.8233 52.9179 10.75C52.8312 10.67 52.7879 10.5667 52.7879 10.44V9.91Z" fill="#53C1DE"/>
</g>
</svg>
