<svg width="18" height="9" viewBox="0 0 18 9" fill="#00ffc2" xmlns="http://www.w3.org/2000/svg">
<g id="cm-grad">
<g id="Group 99">
<path id="Vector 1" d="M6.11422 0.248515C5.41136 0.456214 4.12277 1.30322 4.00563 1.40721C3.88848 1.5112 5.63956 0.975626 5.63956 0.975626C5.63956 0.975626 6.45965 0.767764 6.8111 0.975626C7.16254 1.18349 6.68321 2.50525 6.5828 2.86139C6.48238 3.21753 6.11422 3.90008 6.11422 3.90008C6.11422 3.90008 5.52251 5.02655 5.40537 5.23428C5.28822 5.44202 4.94292 5.89063 4.94278 6.18522C4.94264 6.47981 4.98519 6.51421 5.41136 6.39296C5.83752 6.27171 8.09968 4.31556 8.09968 4.31556C8.09968 4.31556 8.40508 6.35733 8.56816 6.48065C8.59375 6.5 8.8125 6.75 9.25 6.5C9.25 6.5 11.6139 4.92248 11.8482 5.02647C12.0825 5.13047 10.6768 6.89601 10.911 6.89613C11.1453 6.89625 17.8226 7 17.8226 7C17.8226 7 18.2911 6.89613 17.7054 6.79226C17.1197 6.68839 16.2997 6.58452 15.5968 6.48065C14.8939 6.37678 12.5511 6.16904 12.5511 6.16904C12.5511 6.16904 13.0196 5.23428 13.0196 4.92261C13.0196 4.61093 12.7914 4.41931 12.5571 4.31556C12.3229 4.21182 11.8543 4.21169 11.3857 4.31556C10.9171 4.41943 9.50532 5.54595 9.38817 5.33808C9.27102 5.13022 8.91969 3.4685 9.38827 2.63754C9.85684 1.80658 8.33397 3.05302 8.33397 3.05302C8.33397 3.05302 7.63111 3.58848 7.39682 3.69235C7.16253 3.79621 7.71847 3.58423 7.87138 2.53363C8.0243 1.48304 7.95823 1.16987 7.87138 0.664017C7.78454 0.158168 7.63101 0.144605 7.51387 0.0407352C7.39672 -0.0631346 6.81709 0.0408154 6.11422 0.248515Z" fill="white"/>
<path id="Vector" d="M2.97073 2.47494C2.6495 2.96296 2.27309 3.56189 2.0065 4.18713C1.59768 5.14594 1.4274 6.21092 2.13981 7.06346C2.72975 7.76944 3.50025 7.89376 4.27051 7.78852C4.89076 7.70377 5.52505 7.46795 6.07888 7.26203C6.20664 7.21453 6.33012 7.16862 6.44816 7.12652C6.48592 7.11306 6.51891 7.10243 6.54744 7.0943C6.40713 7.23339 6.11242 7.44815 5.71283 7.67503C4.84413 8.16827 3.5307 8.69019 2.36114 8.60978C1.77451 8.56945 1.35521 8.42033 1.06873 8.20067C0.784047 7.98239 0.622436 7.68834 0.560893 7.34026C0.436361 6.6359 0.722917 5.71257 1.24748 4.79805C1.50642 4.34662 2.25386 3.35902 2.85696 2.61458C2.8956 2.56688 2.93358 2.52027 2.97073 2.47494Z" stroke="url(#paint0_linear_356_121)" stroke-width="0.2"/>
</g>
</g>
<defs>
<linearGradient id="paint0_linear_356_121" x1="3.5" y1="1" x2="4" y2="18.5" gradientUnits="userSpaceOnUse">
<stop stop-color="white"/>
<stop offset="0.521788" stop-color="#00ffc2"/>
</linearGradient>
</defs>
</svg>
