<svg width="160" height="28" viewBox="0 0 160 28" fill="none" xmlns="http://www.w3.org/2000/svg">
<g id="md-charlesM">
<path id="Vector 69" d="M124.396 1.04928C121.937 1.92622 117.429 5.50244 117.02 5.94151C116.61 6.38059 122.735 4.11928 122.735 4.11928C122.735 4.11928 125.604 3.24164 126.833 4.11928C128.063 4.99691 126.386 10.5776 126.035 12.0813C125.683 13.585 124.396 16.4669 124.396 16.4669C124.396 16.4669 122.326 21.223 121.916 22.1001C121.506 22.9772 120.298 24.8713 120.298 26.1152C120.297 27.359 120.446 27.5042 121.937 26.9923C123.428 26.4803 131.341 18.2211 131.341 18.2211C131.341 18.2211 132.409 26.8418 132.98 27.3625C133.069 27.4442 133.834 28.4998 135.365 27.4442C135.365 27.4442 143.634 20.7836 144.453 21.2227C145.273 21.6618 141.264 27.9992 142.083 27.9998C142.903 28.0003 160 27.9998 160 27.9998L156.417 27.4442L146.861 26.4442C146.861 26.4442 148.551 22.1001 148.551 20.7842C148.551 19.4682 147.753 18.6592 146.933 18.2211C146.114 17.7831 144.474 17.7826 142.835 18.2211C141.196 18.6597 136.258 23.416 135.848 22.5384C135.438 21.6608 134.209 14.6447 135.848 11.1362C137.487 7.62774 132.16 12.8904 132.16 12.8904C132.16 12.8904 129.702 15.1512 128.882 15.5898C128.063 16.0283 130.007 15.1333 130.542 10.6975C131.077 6.26166 130.846 4.93939 130.542 2.8036C130.238 0.667814 129.701 0.610549 129.292 0.171992C128.882 -0.266566 126.854 0.17233 124.396 1.04928Z" fill="white"/>
<path id="Charles" d="M5.53914 22.4C5.53914 21.4667 5.64581 20.7 5.85914 20.1C6.07247 19.4867 6.43247 19.0067 6.93914 18.66C7.44581 18.3133 8.11914 18.0667 8.95914 17.92C9.81247 17.7733 10.8658 17.7 12.1191 17.7C12.6525 17.7 13.1525 17.72 13.6191 17.76C14.0991 17.7867 14.5991 17.84 15.1191 17.92C15.6791 17.9867 16.0458 18.12 16.2191 18.32C16.3925 18.52 16.4791 18.7933 16.4791 19.14V20.16C16.0925 20.0133 15.6391 19.8933 15.1191 19.8C14.6125 19.7067 14.1058 19.64 13.5991 19.6C13.0925 19.5467 12.6458 19.52 12.2591 19.52C11.4725 19.52 10.8258 19.5867 10.3191 19.72C9.82581 19.8533 9.46581 20.1267 9.23914 20.54C9.01247 20.9533 8.89914 21.58 8.89914 22.42C8.89914 23.22 9.01247 23.8267 9.23914 24.24C9.46581 24.6533 9.84581 24.9333 10.3791 25.08C10.9125 25.2267 11.6191 25.3 12.4991 25.3C12.8725 25.3 13.2658 25.28 13.6791 25.24C14.1058 25.1867 14.5458 25.12 14.9991 25.04C15.4658 24.96 15.9591 24.86 16.4791 24.74V25.68C16.4791 26 16.3858 26.2667 16.1991 26.48C16.0125 26.68 15.6325 26.82 15.0591 26.9C14.5525 26.98 14.0458 27.0333 13.5391 27.06C13.0458 27.0867 12.5325 27.1 11.9991 27.1C10.7325 27.1 9.67914 27.0333 8.83914 26.9C8.01247 26.7533 7.35247 26.5067 6.85914 26.16C6.37914 25.8133 6.03914 25.34 5.83914 24.74C5.63914 24.1267 5.53914 23.3467 5.53914 22.4ZM22.6276 27V18.72C22.6276 18.32 22.7076 18.0667 22.8676 17.96C23.0409 17.8533 23.3276 17.8 23.7276 17.8H25.9076V21.38H30.4276V17.8H33.7076V25.96C33.7076 26.3733 33.6409 26.6533 33.5076 26.8C33.3742 26.9333 33.0676 27 32.5876 27H30.4276V23.08H25.9076V27H22.6276ZM39.326 27L42.506 19.36C42.7193 18.84 43.026 18.44 43.426 18.16C43.826 17.8667 44.4527 17.72 45.306 17.72C46.0127 17.72 46.586 17.8533 47.026 18.12C47.466 18.3867 47.7993 18.8 48.026 19.36L51.226 27H47.666L46.806 24.94H42.646L41.846 27H39.326ZM43.166 23.68H46.206L45.126 20.88C45.086 20.7733 45.0393 20.68 44.986 20.6C44.9327 20.5067 44.8393 20.46 44.706 20.46C44.5593 20.46 44.4527 20.5067 44.386 20.6C44.3327 20.68 44.286 20.7733 44.246 20.88L43.166 23.68ZM62.8135 23.9C62.8135 23.9 62.6802 23.9 62.4135 23.9C62.1602 23.9 61.8335 23.9067 61.4335 23.92C61.0335 23.92 60.6202 23.92 60.1935 23.92V27H56.9135V19.02C56.9135 18.6333 57.0002 18.3333 57.1735 18.12C57.3468 17.9067 57.7002 17.8 58.2335 17.8C58.4335 17.8 58.7335 17.8 59.1335 17.8C59.5335 17.7867 59.9935 17.78 60.5135 17.78C61.0335 17.78 61.5668 17.78 62.1135 17.78C62.6735 17.7667 63.2068 17.7667 63.7135 17.78C64.2202 17.78 64.6602 17.7867 65.0335 17.8C65.4202 17.8 65.7002 17.8067 65.8735 17.82C66.5935 17.8867 67.1335 18.1067 67.4935 18.48C67.8535 18.84 68.0335 19.4333 68.0335 20.26C68.0335 21.0067 67.9735 21.5533 67.8535 21.9C67.7468 22.2333 67.5668 22.4933 67.3135 22.68C67.2202 22.7467 67.0935 22.8 66.9335 22.84C66.7735 22.88 66.5935 22.9 66.3935 22.9V22.98C66.4868 22.98 66.5868 22.98 66.6935 22.98C66.8135 22.98 66.9135 22.9867 66.9935 23C67.5002 23.0933 67.8002 23.2867 67.8935 23.58C68.0002 23.8733 68.0535 24.18 68.0535 24.5V26.26C68.0535 26.5133 68.0802 26.7 68.1335 26.82C68.1868 26.9267 68.2202 26.9867 68.2335 27H65.7935C65.4468 27 65.1735 26.9467 64.9735 26.84C64.7868 26.7333 64.6935 26.5067 64.6935 26.16V24.84C64.6935 24.4267 64.6002 24.1667 64.4135 24.06C64.2402 23.9533 63.9268 23.9 63.4735 23.9H62.8135ZM60.1935 22.34C60.3402 22.34 60.5602 22.3467 60.8535 22.36C61.1602 22.36 61.4935 22.36 61.8535 22.36C62.2135 22.36 62.5402 22.36 62.8335 22.36C63.1402 22.36 63.3602 22.36 63.4935 22.36C63.8135 22.36 64.0935 22.26 64.3335 22.06C64.5868 21.8467 64.7135 21.4533 64.7135 20.88C64.7135 20.48 64.6402 20.1667 64.4935 19.94C64.3602 19.7133 64.1335 19.5867 63.8135 19.56C63.6268 19.52 63.3735 19.5 63.0535 19.5C62.7468 19.5 62.4202 19.5 62.0735 19.5C61.7402 19.5 61.4335 19.5067 61.1535 19.52C60.8735 19.52 60.6668 19.52 60.5335 19.52C60.5068 19.52 60.4402 19.54 60.3335 19.58C60.2402 19.62 60.1935 19.72 60.1935 19.88V22.34ZM77.7794 17.8V25.28H83.6794V27H74.4994V18.88C74.4994 18.64 74.5128 18.44 74.5394 18.28C74.5794 18.12 74.6728 18 74.8194 17.92C74.9661 17.84 75.2194 17.8 75.5794 17.8H77.7794ZM89.4463 27V18.84C89.4463 18.4133 89.5197 18.1333 89.6663 18C89.813 17.8667 90.0997 17.8 90.5263 17.8H99.7663V19.52H92.7263V21.44H99.1263V23.14H92.7263V25.28H99.7663V27H89.4463ZM105.576 24.82C105.909 24.9667 106.336 25.08 106.856 25.16C107.376 25.2267 107.916 25.2667 108.476 25.28C109.036 25.2933 109.529 25.3 109.956 25.3C110.116 25.3 110.316 25.3 110.556 25.3C110.809 25.3 111.016 25.2933 111.176 25.28C111.536 25.28 111.842 25.2467 112.096 25.18C112.349 25.1 112.536 24.98 112.656 24.82C112.789 24.66 112.856 24.4333 112.856 24.14C112.856 23.7933 112.756 23.5667 112.556 23.46C112.356 23.34 112.049 23.28 111.636 23.28C111.489 23.28 111.316 23.28 111.116 23.28C110.929 23.28 110.689 23.28 110.396 23.28C110.102 23.28 109.722 23.28 109.256 23.28C108.829 23.28 108.396 23.26 107.956 23.22C107.529 23.18 107.142 23.0867 106.796 22.94C106.449 22.78 106.169 22.5333 105.956 22.2C105.756 21.8533 105.656 21.38 105.656 20.78C105.656 20.06 105.776 19.5 106.016 19.1C106.269 18.6867 106.616 18.38 107.056 18.18C107.509 17.98 108.042 17.8533 108.656 17.8C109.282 17.7467 109.969 17.72 110.716 17.72C111.169 17.72 111.656 17.7267 112.176 17.74C112.709 17.7533 113.202 17.7733 113.656 17.8C114.122 17.8267 114.482 17.8733 114.736 17.94C115.189 17.9667 115.536 18.0867 115.776 18.3C116.029 18.5133 116.156 18.78 116.156 19.1C116.156 19.1533 116.156 19.2467 116.156 19.38C116.156 19.5 116.156 19.62 116.156 19.74C116.156 19.86 116.156 19.9267 116.156 19.94C116.049 19.8467 115.849 19.7733 115.556 19.72C115.276 19.6533 114.942 19.6067 114.556 19.58C114.182 19.5533 113.809 19.5333 113.436 19.52C113.076 19.5067 112.756 19.5 112.476 19.5H110.676C110.316 19.5 110.009 19.5333 109.756 19.6C109.516 19.6533 109.336 19.7533 109.216 19.9C109.096 20.0467 109.036 20.2533 109.036 20.52C109.036 20.7333 109.076 20.9067 109.156 21.04C109.236 21.16 109.362 21.2467 109.536 21.3C109.709 21.3533 109.936 21.38 110.216 21.38C111.029 21.38 111.682 21.38 112.176 21.38C112.669 21.38 112.989 21.38 113.136 21.38C113.776 21.38 114.336 21.4333 114.816 21.54C115.296 21.6467 115.669 21.8867 115.936 22.26C116.202 22.6333 116.336 23.2067 116.336 23.98C116.336 24.7133 116.189 25.3 115.896 25.74C115.602 26.1667 115.196 26.48 114.676 26.68C114.169 26.88 113.576 27 112.896 27.04C112.256 27.08 111.649 27.1 111.076 27.1C110.502 27.1 109.896 27.1 109.256 27.1C108.722 27.0867 108.229 27.06 107.776 27.02C107.336 26.9933 106.949 26.94 106.616 26.86C106.282 26.7667 106.022 26.6467 105.836 26.5C105.662 26.34 105.576 26.1333 105.576 25.88V24.82Z" fill="white"/>
</g>
</svg>
